<?xml version="1.0" encoding="utf-8" standalone="no"?>
<!DOCTYPE svg PUBLIC "-//W3C//DTD SVG 1.1//EN"
  "http://www.w3.org/Graphics/SVG/1.1/DTD/svg11.dtd">
<svg xmlns:xlink="http://www.w3.org/1999/xlink" width="312.738048pt" height="125.649599pt" viewBox="0 0 312.738048 125.649599" xmlns="http://www.w3.org/2000/svg" version="1.1">
 <metadata>
  <rdf:RDF xmlns:dc="http://purl.org/dc/elements/1.1/" xmlns:cc="http://creativecommons.org/ns#" xmlns:rdf="http://www.w3.org/1999/02/22-rdf-syntax-ns#">
   <cc:Work>
    <dc:type rdf:resource="http://purl.org/dc/dcmitype/StillImage"/>
    <dc:date>2026-05-26T08:54:15.907620</dc:date>
    <dc:format>image/svg+xml</dc:format>
    <dc:creator>
     <cc:Agent>
      <dc:title>Matplotlib v3.10.9, https://matplotlib.org/</dc:title>
     </cc:Agent>
    </dc:creator>
   </cc:Work>
  </rdf:RDF>
 </metadata>
 <defs>
  <style type="text/css">*{stroke-linejoin: round; stroke-linecap: butt}</style>
 </defs>
 <g id="figure_1">
  <g id="patch_1">
   <path d="M 0 125.649599 
L 312.738048 125.649599 
L 312.738048 0 
L 0 0 
z
" style="fill: #ffffff"/>
  </g>
  <g id="axes_1">
   <g id="line2d_1">
    <path d="M 64.497252 44.2832 
L 300.902648 44.2832 
" clip-path="url(#pa91841e8dd)" style="fill: none; stroke: #000000; stroke-width: 2; stroke-linecap: square"/>
   </g>
   <g id="line2d_2">
    <path d="M 64.497252 90.637199 
L 300.902648 90.637199 
" clip-path="url(#pa91841e8dd)" style="fill: none; stroke: #000000; stroke-width: 2; stroke-linecap: square"/>
   </g>
   <g id="patch_2">
    <path d="M 59.861852 21.1062 
L -1098.988133 21.1062 
L -1098.988133 160.168198 
L 59.861852 160.168198 
z
" clip-path="url(#pa91841e8dd)" style="fill: #ffffff; stroke: #ffffff; stroke-width: 1.5; stroke-linejoin: miter"/>
   </g>
   <g id="line2d_3">
    <path d="M 135.882411 90.637199 
L 135.882411 44.2832 
" clip-path="url(#pa91841e8dd)" style="fill: none; stroke: #002d9c; stroke-width: 2; stroke-linecap: square"/>
   </g>
   <g id="line2d_4">
    <path d="M 228.590409 90.637199 
L 228.590409 44.2832 
" clip-path="url(#pa91841e8dd)" style="fill: none; stroke: #002d9c; stroke-width: 2; stroke-linecap: square"/>
   </g>
   <g id="patch_3">
    <path d="M 74.463361 59.348249 
L 104.593461 59.348249 
L 104.593461 29.21815 
L 74.463361 29.21815 
z
" clip-path="url(#pa91841e8dd)" style="fill: #9f1853; stroke: #9f1853; stroke-width: 1.5; stroke-linejoin: miter"/>
   </g>
   <g id="patch_4">
    <path d="M 74.463361 105.702249 
L 104.593461 105.702249 
L 104.593461 75.572149 
L 74.463361 75.572149 
z
" clip-path="url(#pa91841e8dd)" style="fill: #9f1853; stroke: #9f1853; stroke-width: 1.5; stroke-linejoin: miter"/>
   </g>
   <g id="patch_5">
    <path d="M 135.882411 48.802714 
C 137.081 48.802714 138.23066 48.32651 139.07819 47.478979 
C 139.925721 46.631448 140.401926 45.481789 140.401926 44.2832 
C 140.401926 43.08461 139.925721 41.934951 139.07819 41.08742 
C 138.23066 40.239889 137.081 39.763685 135.882411 39.763685 
C 134.683821 39.763685 133.534162 40.239889 132.686631 41.08742 
C 131.8391 41.934951 131.362896 43.08461 131.362896 44.2832 
C 131.362896 45.481789 131.8391 46.631448 132.686631 47.478979 
C 133.534162 48.32651 134.683821 48.802714 135.882411 48.802714 
z
" clip-path="url(#pa91841e8dd)" style="fill: #002d9c; stroke: #002d9c; stroke-width: 1.5; stroke-linejoin: miter"/>
   </g>
   <g id="patch_6">
    <path d="M 135.882411 101.182734 
C 138.679119 101.182734 141.361658 100.07159 143.33923 98.094018 
C 145.316801 96.116447 146.427945 93.433907 146.427945 90.637199 
C 146.427945 87.84049 145.316801 85.157951 143.33923 83.18038 
C 141.361658 81.202808 138.679119 80.091664 135.882411 80.091664 
C 133.085702 80.091664 130.403163 81.202808 128.425591 83.18038 
C 126.44802 85.157951 125.336876 87.84049 125.336876 90.637199 
C 125.336876 93.433907 126.44802 96.116447 128.425591 98.094018 
C 130.403163 100.07159 133.085702 101.182734 135.882411 101.182734 
z
" clip-path="url(#pa91841e8dd)" style="fill: #002d9c; stroke: #002d9c; stroke-width: 2; stroke-linejoin: miter"/>
   </g>
   <g id="patch_7">
    <path d="M 167.17136 59.348249 
L 197.30146 59.348249 
L 197.30146 29.21815 
L 167.17136 29.21815 
z
" clip-path="url(#pa91841e8dd)" style="fill: #9f1853; stroke: #9f1853; stroke-width: 1.5; stroke-linejoin: miter"/>
   </g>
   <g id="patch_8">
    <path d="M 167.17136 105.702249 
L 197.30146 105.702249 
L 197.30146 75.572149 
L 167.17136 75.572149 
z
" clip-path="url(#pa91841e8dd)" style="fill: #9f1853; stroke: #9f1853; stroke-width: 1.5; stroke-linejoin: miter"/>
   </g>
   <g id="patch_9">
    <path d="M 228.590409 48.802714 
C 229.788999 48.802714 230.938658 48.32651 231.786189 47.478979 
C 232.63372 46.631448 233.109924 45.481789 233.109924 44.2832 
C 233.109924 43.08461 232.63372 41.934951 231.786189 41.08742 
C 230.938658 40.239889 229.788999 39.763685 228.590409 39.763685 
C 227.39182 39.763685 226.24216 40.239889 225.39463 41.08742 
C 224.547099 41.934951 224.070894 43.08461 224.070894 44.2832 
C 224.070894 45.481789 224.547099 46.631448 225.39463 47.478979 
C 226.24216 48.32651 227.39182 48.802714 228.590409 48.802714 
z
" clip-path="url(#pa91841e8dd)" style="fill: #002d9c; stroke: #002d9c; stroke-width: 1.5; stroke-linejoin: miter"/>
   </g>
   <g id="patch_10">
    <path d="M 228.590409 101.182734 
C 231.387118 101.182734 234.069657 100.07159 236.047229 98.094018 
C 238.0248 96.116447 239.135944 93.433907 239.135944 90.637199 
C 239.135944 87.84049 238.0248 85.157951 236.047229 83.18038 
C 234.069657 81.202808 231.387118 80.091664 228.590409 80.091664 
C 225.793701 80.091664 223.111162 81.202808 221.13359 83.18038 
C 219.156019 85.157951 218.044875 87.84049 218.044875 90.637199 
C 218.044875 93.433907 219.156019 96.116447 221.13359 98.094018 
C 223.111162 100.07159 225.793701 101.182734 228.590409 101.182734 
z
" clip-path="url(#pa91841e8dd)" style="fill: #002d9c; stroke: #002d9c; stroke-width: 2; stroke-linejoin: miter"/>
   </g>
   <g id="patch_11">
    <path d="M 259.879359 59.348249 
L 290.009459 59.348249 
L 290.009459 29.21815 
L 259.879359 29.21815 
z
" clip-path="url(#pa91841e8dd)" style="fill: #9f1853; stroke: #9f1853; stroke-width: 1.5; stroke-linejoin: miter"/>
   </g>
   <g id="patch_12">
    <path d="M 259.879359 105.702249 
L 290.009459 105.702249 
L 290.009459 75.572149 
L 259.879359 75.572149 
z
" clip-path="url(#pa91841e8dd)" style="fill: #9f1853; stroke: #9f1853; stroke-width: 1.5; stroke-linejoin: miter"/>
   </g>
   <g id="line2d_5">
    <path d="M 135.882411 96.663219 
L 135.882411 84.611179 
" clip-path="url(#pa91841e8dd)" style="fill: none; stroke: #ffffff; stroke-width: 2; stroke-linecap: square"/>
   </g>
   <g id="line2d_6">
    <path d="M 129.856391 90.637199 
L 141.908431 90.637199 
" clip-path="url(#pa91841e8dd)" style="fill: none; stroke: #ffffff; stroke-width: 2; stroke-linecap: square"/>
   </g>
   <g id="line2d_7">
    <path d="M 228.590409 96.663219 
L 228.590409 84.611179 
" clip-path="url(#pa91841e8dd)" style="fill: none; stroke: #ffffff; stroke-width: 2; stroke-linecap: square"/>
   </g>
   <g id="line2d_8">
    <path d="M 222.564389 90.637199 
L 234.616429 90.637199 
" clip-path="url(#pa91841e8dd)" style="fill: none; stroke: #ffffff; stroke-width: 2; stroke-linecap: square"/>
   </g>
   <g id="text_1">
    <g clip-path="url(#pa91841e8dd)">
     <!-- ${q}_{0}$ -->
     <g transform="translate(37.188952 48.734176) scale(0.1625 -0.1625)">
      <defs>
       <path id="DejaVuSans-Oblique-71" d="M 2669 525 
Q 2438 222 2123 65 
Q 1809 -91 1428 -91 
Q 897 -91 595 267 
Q 294 625 294 1253 
Q 294 1759 480 2231 
Q 666 2703 1013 3078 
Q 1238 3322 1530 3453 
Q 1822 3584 2144 3584 
Q 2531 3584 2781 3431 
Q 3031 3278 3144 2969 
L 3244 3494 
L 3822 3494 
L 2888 -1319 
L 2309 -1319 
L 2669 525 
z
M 891 1338 
Q 891 875 1084 633 
Q 1278 391 1644 391 
Q 2188 391 2572 911 
Q 2956 1431 2956 2175 
Q 2956 2625 2757 2864 
Q 2559 3103 2188 3103 
Q 1916 3103 1684 2976 
Q 1453 2850 1281 2606 
Q 1100 2350 995 2006 
Q 891 1663 891 1338 
z
" transform="scale(0.015625)"/>
       <path id="DejaVuSans-30" d="M 2034 4250 
Q 1547 4250 1301 3770 
Q 1056 3291 1056 2328 
Q 1056 1369 1301 889 
Q 1547 409 2034 409 
Q 2525 409 2770 889 
Q 3016 1369 3016 2328 
Q 3016 3291 2770 3770 
Q 2525 4250 2034 4250 
z
M 2034 4750 
Q 2819 4750 3233 4129 
Q 3647 3509 3647 2328 
Q 3647 1150 3233 529 
Q 2819 -91 2034 -91 
Q 1250 -91 836 529 
Q 422 1150 422 2328 
Q 422 3509 836 4129 
Q 1250 4750 2034 4750 
z
" transform="scale(0.015625)"/>
      </defs>
      <use xlink:href="#DejaVuSans-Oblique-71"/>
      <use xlink:href="#DejaVuSans-30" transform="translate(63.476562 -16.40625) scale(0.7)"/>
     </g>
    </g>
   </g>
   <g id="text_2">
    <g clip-path="url(#pa91841e8dd)">
     <!-- ${q}_{1}$ -->
     <g transform="translate(37.188952 95.088175) scale(0.1625 -0.1625)">
      <defs>
       <path id="DejaVuSans-31" d="M 794 531 
L 1825 531 
L 1825 4091 
L 703 3866 
L 703 4441 
L 1819 4666 
L 2450 4666 
L 2450 531 
L 3481 531 
L 3481 0 
L 794 0 
L 794 531 
z
" transform="scale(0.015625)"/>
      </defs>
      <use xlink:href="#DejaVuSans-Oblique-71"/>
      <use xlink:href="#DejaVuSans-31" transform="translate(63.476562 -16.40625) scale(0.7)"/>
     </g>
    </g>
   </g>
   <g id="text_3">
    <g clip-path="url(#pa91841e8dd)">
     <!-- θ[0] -->
     <g style="fill: #ffffff" transform="translate(81.414661 55.529729) scale(0.08 -0.08)">
      <defs>
       <path id="DejaVuSans-3b8" d="M 2953 2219 
L 963 2219 
Q 1009 1284 1225 888 
Q 1494 400 1959 400 
Q 2428 400 2688 891 
Q 2916 1322 2953 2219 
z
M 2944 2750 
Q 2856 3638 2688 3950 
Q 2419 4444 1959 4444 
Q 1481 4444 1228 3956 
Q 1028 3563 969 2750 
L 2944 2750 
z
M 1959 4913 
Q 2709 4913 3138 4250 
Q 3566 3591 3566 2422 
Q 3566 1256 3138 594 
Q 2709 -72 1959 -72 
Q 1206 -72 781 594 
Q 353 1256 353 2422 
Q 353 3591 781 4250 
Q 1206 4913 1959 4913 
z
" transform="scale(0.015625)"/>
       <path id="DejaVuSans-5b" d="M 550 4863 
L 1875 4863 
L 1875 4416 
L 1125 4416 
L 1125 -397 
L 1875 -397 
L 1875 -844 
L 550 -844 
L 550 4863 
z
" transform="scale(0.015625)"/>
       <path id="DejaVuSans-5d" d="M 1947 4863 
L 1947 -844 
L 622 -844 
L 622 -397 
L 1369 -397 
L 1369 4416 
L 622 4416 
L 622 4863 
L 1947 4863 
z
" transform="scale(0.015625)"/>
      </defs>
      <use xlink:href="#DejaVuSans-3b8"/>
      <use xlink:href="#DejaVuSans-5b" transform="translate(61.181641 0)"/>
      <use xlink:href="#DejaVuSans-30" transform="translate(100.195312 0)"/>
      <use xlink:href="#DejaVuSans-5d" transform="translate(163.818359 0)"/>
     </g>
    </g>
   </g>
   <g id="text_4">
    <g clip-path="url(#pa91841e8dd)">
     <!-- $\mathrm{R_Y}$ -->
     <g style="fill: #ffffff" transform="translate(81.988411 43.350872) scale(0.13 -0.13)">
      <defs>
       <path id="DejaVuSans-52" d="M 2841 2188 
Q 3044 2119 3236 1894 
Q 3428 1669 3622 1275 
L 4263 0 
L 3584 0 
L 2988 1197 
Q 2756 1666 2539 1819 
Q 2322 1972 1947 1972 
L 1259 1972 
L 1259 0 
L 628 0 
L 628 4666 
L 2053 4666 
Q 2853 4666 3247 4331 
Q 3641 3997 3641 3322 
Q 3641 2881 3436 2590 
Q 3231 2300 2841 2188 
z
M 1259 4147 
L 1259 2491 
L 2053 2491 
Q 2509 2491 2742 2702 
Q 2975 2913 2975 3322 
Q 2975 3731 2742 3939 
Q 2509 4147 2053 4147 
L 1259 4147 
z
" transform="scale(0.015625)"/>
       <path id="DejaVuSans-59" d="M -13 4666 
L 666 4666 
L 1959 2747 
L 3244 4666 
L 3922 4666 
L 2272 2222 
L 2272 0 
L 1638 0 
L 1638 2222 
L -13 4666 
z
" transform="scale(0.015625)"/>
      </defs>
      <use xlink:href="#DejaVuSans-52" transform="translate(0 0.09375)"/>
      <use xlink:href="#DejaVuSans-59" transform="translate(70.439453 -16.3125) scale(0.7)"/>
     </g>
    </g>
   </g>
   <g id="text_5">
    <g clip-path="url(#pa91841e8dd)">
     <!-- θ[1] -->
     <g style="fill: #ffffff" transform="translate(81.414661 101.883729) scale(0.08 -0.08)">
      <use xlink:href="#DejaVuSans-3b8"/>
      <use xlink:href="#DejaVuSans-5b" transform="translate(61.181641 0)"/>
      <use xlink:href="#DejaVuSans-31" transform="translate(100.195312 0)"/>
      <use xlink:href="#DejaVuSans-5d" transform="translate(163.818359 0)"/>
     </g>
    </g>
   </g>
   <g id="text_6">
    <g clip-path="url(#pa91841e8dd)">
     <!-- $\mathrm{R_Y}$ -->
     <g style="fill: #ffffff" transform="translate(81.988411 89.704871) scale(0.13 -0.13)">
      <use xlink:href="#DejaVuSans-52" transform="translate(0 0.09375)"/>
      <use xlink:href="#DejaVuSans-59" transform="translate(70.439453 -16.3125) scale(0.7)"/>
     </g>
    </g>
   </g>
   <g id="text_7">
    <g clip-path="url(#pa91841e8dd)">
     <!-- θ[2] -->
     <g style="fill: #ffffff" transform="translate(174.12266 55.529729) scale(0.08 -0.08)">
      <defs>
       <path id="DejaVuSans-32" d="M 1228 531 
L 3431 531 
L 3431 0 
L 469 0 
L 469 531 
Q 828 903 1448 1529 
Q 2069 2156 2228 2338 
Q 2531 2678 2651 2914 
Q 2772 3150 2772 3378 
Q 2772 3750 2511 3984 
Q 2250 4219 1831 4219 
Q 1534 4219 1204 4116 
Q 875 4013 500 3803 
L 500 4441 
Q 881 4594 1212 4672 
Q 1544 4750 1819 4750 
Q 2544 4750 2975 4387 
Q 3406 4025 3406 3419 
Q 3406 3131 3298 2873 
Q 3191 2616 2906 2266 
Q 2828 2175 2409 1742 
Q 1991 1309 1228 531 
z
" transform="scale(0.015625)"/>
      </defs>
      <use xlink:href="#DejaVuSans-3b8"/>
      <use xlink:href="#DejaVuSans-5b" transform="translate(61.181641 0)"/>
      <use xlink:href="#DejaVuSans-32" transform="translate(100.195312 0)"/>
      <use xlink:href="#DejaVuSans-5d" transform="translate(163.818359 0)"/>
     </g>
    </g>
   </g>
   <g id="text_8">
    <g clip-path="url(#pa91841e8dd)">
     <!-- $\mathrm{R_Y}$ -->
     <g style="fill: #ffffff" transform="translate(174.69641 43.350872) scale(0.13 -0.13)">
      <use xlink:href="#DejaVuSans-52" transform="translate(0 0.09375)"/>
      <use xlink:href="#DejaVuSans-59" transform="translate(70.439453 -16.3125) scale(0.7)"/>
     </g>
    </g>
   </g>
   <g id="text_9">
    <g clip-path="url(#pa91841e8dd)">
     <!-- θ[3] -->
     <g style="fill: #ffffff" transform="translate(174.12266 101.883729) scale(0.08 -0.08)">
      <defs>
       <path id="DejaVuSans-33" d="M 2597 2516 
Q 3050 2419 3304 2112 
Q 3559 1806 3559 1356 
Q 3559 666 3084 287 
Q 2609 -91 1734 -91 
Q 1441 -91 1130 -33 
Q 819 25 488 141 
L 488 750 
Q 750 597 1062 519 
Q 1375 441 1716 441 
Q 2309 441 2620 675 
Q 2931 909 2931 1356 
Q 2931 1769 2642 2001 
Q 2353 2234 1838 2234 
L 1294 2234 
L 1294 2753 
L 1863 2753 
Q 2328 2753 2575 2939 
Q 2822 3125 2822 3475 
Q 2822 3834 2567 4026 
Q 2313 4219 1838 4219 
Q 1578 4219 1281 4162 
Q 984 4106 628 3988 
L 628 4550 
Q 988 4650 1302 4700 
Q 1616 4750 1894 4750 
Q 2613 4750 3031 4423 
Q 3450 4097 3450 3541 
Q 3450 3153 3228 2886 
Q 3006 2619 2597 2516 
z
" transform="scale(0.015625)"/>
      </defs>
      <use xlink:href="#DejaVuSans-3b8"/>
      <use xlink:href="#DejaVuSans-5b" transform="translate(61.181641 0)"/>
      <use xlink:href="#DejaVuSans-33" transform="translate(100.195312 0)"/>
      <use xlink:href="#DejaVuSans-5d" transform="translate(163.818359 0)"/>
     </g>
    </g>
   </g>
   <g id="text_10">
    <g clip-path="url(#pa91841e8dd)">
     <!-- $\mathrm{R_Y}$ -->
     <g style="fill: #ffffff" transform="translate(174.69641 89.704871) scale(0.13 -0.13)">
      <use xlink:href="#DejaVuSans-52" transform="translate(0 0.09375)"/>
      <use xlink:href="#DejaVuSans-59" transform="translate(70.439453 -16.3125) scale(0.7)"/>
     </g>
    </g>
   </g>
   <g id="text_11">
    <g clip-path="url(#pa91841e8dd)">
     <!-- θ[4] -->
     <g style="fill: #ffffff" transform="translate(266.830659 55.529729) scale(0.08 -0.08)">
      <defs>
       <path id="DejaVuSans-34" d="M 2419 4116 
L 825 1625 
L 2419 1625 
L 2419 4116 
z
M 2253 4666 
L 3047 4666 
L 3047 1625 
L 3713 1625 
L 3713 1100 
L 3047 1100 
L 3047 0 
L 2419 0 
L 2419 1100 
L 313 1100 
L 313 1709 
L 2253 4666 
z
" transform="scale(0.015625)"/>
      </defs>
      <use xlink:href="#DejaVuSans-3b8"/>
      <use xlink:href="#DejaVuSans-5b" transform="translate(61.181641 0)"/>
      <use xlink:href="#DejaVuSans-34" transform="translate(100.195312 0)"/>
      <use xlink:href="#DejaVuSans-5d" transform="translate(163.818359 0)"/>
     </g>
    </g>
   </g>
   <g id="text_12">
    <g clip-path="url(#pa91841e8dd)">
     <!-- $\mathrm{R_Y}$ -->
     <g style="fill: #ffffff" transform="translate(267.404409 43.350872) scale(0.13 -0.13)">
      <use xlink:href="#DejaVuSans-52" transform="translate(0 0.09375)"/>
      <use xlink:href="#DejaVuSans-59" transform="translate(70.439453 -16.3125) scale(0.7)"/>
     </g>
    </g>
   </g>
   <g id="text_13">
    <g clip-path="url(#pa91841e8dd)">
     <!-- θ[5] -->
     <g style="fill: #ffffff" transform="translate(266.830659 101.883729) scale(0.08 -0.08)">
      <defs>
       <path id="DejaVuSans-35" d="M 691 4666 
L 3169 4666 
L 3169 4134 
L 1269 4134 
L 1269 2991 
Q 1406 3038 1543 3061 
Q 1681 3084 1819 3084 
Q 2600 3084 3056 2656 
Q 3513 2228 3513 1497 
Q 3513 744 3044 326 
Q 2575 -91 1722 -91 
Q 1428 -91 1123 -41 
Q 819 9 494 109 
L 494 744 
Q 775 591 1075 516 
Q 1375 441 1709 441 
Q 2250 441 2565 725 
Q 2881 1009 2881 1497 
Q 2881 1984 2565 2268 
Q 2250 2553 1709 2553 
Q 1456 2553 1204 2497 
Q 953 2441 691 2322 
L 691 4666 
z
" transform="scale(0.015625)"/>
      </defs>
      <use xlink:href="#DejaVuSans-3b8"/>
      <use xlink:href="#DejaVuSans-5b" transform="translate(61.181641 0)"/>
      <use xlink:href="#DejaVuSans-35" transform="translate(100.195312 0)"/>
      <use xlink:href="#DejaVuSans-5d" transform="translate(163.818359 0)"/>
     </g>
    </g>
   </g>
   <g id="text_14">
    <g clip-path="url(#pa91841e8dd)">
     <!-- $\mathrm{R_Y}$ -->
     <g style="fill: #ffffff" transform="translate(267.404409 89.704871) scale(0.13 -0.13)">
      <use xlink:href="#DejaVuSans-52" transform="translate(0 0.09375)"/>
      <use xlink:href="#DejaVuSans-59" transform="translate(70.439453 -16.3125) scale(0.7)"/>
     </g>
    </g>
   </g>
  </g>
 </g>
 <defs>
  <clipPath id="pa91841e8dd">
   <rect x="7.2" y="7.2" width="298.338048" height="111.249599"/>
  </clipPath>
 </defs>
</svg>
