<?xml version="1.0" encoding="utf-8" standalone="no"?>
<!DOCTYPE svg PUBLIC "-//W3C//DTD SVG 1.1//EN"
  "http://www.w3.org/Graphics/SVG/1.1/DTD/svg11.dtd">
<svg xmlns:xlink="http://www.w3.org/1999/xlink" width="782.484855pt" height="458.674375pt" viewBox="0 0 782.484855 458.674375" xmlns="http://www.w3.org/2000/svg" version="1.1">
 <metadata>
  <rdf:RDF xmlns:dc="http://purl.org/dc/elements/1.1/" xmlns:cc="http://creativecommons.org/ns#" xmlns:rdf="http://www.w3.org/1999/02/22-rdf-syntax-ns#">
   <cc:Work>
    <dc:type rdf:resource="http://purl.org/dc/dcmitype/StillImage"/>
    <dc:date>2026-05-26T19:25:38.901812</dc:date>
    <dc:format>image/svg+xml</dc:format>
    <dc:creator>
     <cc:Agent>
      <dc:title>Matplotlib v3.10.9, https://matplotlib.org/</dc:title>
     </cc:Agent>
    </dc:creator>
   </cc:Work>
  </rdf:RDF>
 </metadata>
 <defs>
  <style type="text/css">*{stroke-linejoin: round; stroke-linecap: butt}</style>
 </defs>
 <g id="figure_1">
  <g id="patch_1">
   <path d="M 0 458.674375 
L 782.484855 458.674375 
L 782.484855 0 
L 0 0 
z
" style="fill: #ffffff"/>
  </g>
  <g id="axes_1">
   <g id="patch_2">
    <path d="M 62.86875 421.118125 
L 578.56775 421.118125 
L 578.56775 22.318125 
L 62.86875 22.318125 
z
" style="fill: #ffffff"/>
   </g>
   <g id="matplotlib.axis_1">
    <g id="xtick_1">
     <g id="line2d_1">
      <path d="M 86.309614 421.118125 
L 86.309614 22.318125 
" clip-path="url(#p04ff8b33ea)" style="fill: none; stroke: #b0b0b0; stroke-opacity: 0.3; stroke-width: 0.8; stroke-linecap: square"/>
     </g>
     <g id="line2d_2">
      <defs>
       <path id="mc9f314cda7" d="M 0 0 
L 0 3.5 
" style="stroke: #000000; stroke-width: 0.8"/>
      </defs>
      <g>
       <use xlink:href="#mc9f314cda7" x="86.309614" y="421.118125" style="stroke: #000000; stroke-width: 0.8"/>
      </g>
     </g>
     <g id="text_1">
      <!-- 0% -->
      <g transform="translate(78.377582 435.716562) scale(0.1 -0.1)">
       <defs>
        <path id="DejaVuSans-30" d="M 2034 4250 
Q 1547 4250 1301 3770 
Q 1056 3291 1056 2328 
Q 1056 1369 1301 889 
Q 1547 409 2034 409 
Q 2525 409 2770 889 
Q 3016 1369 3016 2328 
Q 3016 3291 2770 3770 
Q 2525 4250 2034 4250 
z
M 2034 4750 
Q 2819 4750 3233 4129 
Q 3647 3509 3647 2328 
Q 3647 1150 3233 529 
Q 2819 -91 2034 -91 
Q 1250 -91 836 529 
Q 422 1150 422 2328 
Q 422 3509 836 4129 
Q 1250 4750 2034 4750 
z
" transform="scale(0.015625)"/>
        <path id="DejaVuSans-25" d="M 4653 2053 
Q 4381 2053 4226 1822 
Q 4072 1591 4072 1178 
Q 4072 772 4226 539 
Q 4381 306 4653 306 
Q 4919 306 5073 539 
Q 5228 772 5228 1178 
Q 5228 1588 5073 1820 
Q 4919 2053 4653 2053 
z
M 4653 2450 
Q 5147 2450 5437 2106 
Q 5728 1763 5728 1178 
Q 5728 594 5436 251 
Q 5144 -91 4653 -91 
Q 4153 -91 3862 251 
Q 3572 594 3572 1178 
Q 3572 1766 3864 2108 
Q 4156 2450 4653 2450 
z
M 1428 4353 
Q 1159 4353 1004 4120 
Q 850 3888 850 3481 
Q 850 3069 1003 2837 
Q 1156 2606 1428 2606 
Q 1700 2606 1854 2837 
Q 2009 3069 2009 3481 
Q 2009 3884 1853 4118 
Q 1697 4353 1428 4353 
z
M 4250 4750 
L 4750 4750 
L 1831 -91 
L 1331 -91 
L 4250 4750 
z
M 1428 4750 
Q 1922 4750 2215 4408 
Q 2509 4066 2509 3481 
Q 2509 2891 2217 2550 
Q 1925 2209 1428 2209 
Q 931 2209 642 2551 
Q 353 2894 353 3481 
Q 353 4063 643 4406 
Q 934 4750 1428 4750 
z
" transform="scale(0.015625)"/>
       </defs>
       <use xlink:href="#DejaVuSans-30"/>
       <use xlink:href="#DejaVuSans-25" transform="translate(63.623047 0)"/>
      </g>
     </g>
    </g>
    <g id="xtick_2">
     <g id="line2d_3">
      <path d="M 133.191341 421.118125 
L 133.191341 22.318125 
" clip-path="url(#p04ff8b33ea)" style="fill: none; stroke: #b0b0b0; stroke-opacity: 0.3; stroke-width: 0.8; stroke-linecap: square"/>
     </g>
     <g id="line2d_4">
      <g>
       <use xlink:href="#mc9f314cda7" x="133.191341" y="421.118125" style="stroke: #000000; stroke-width: 0.8"/>
      </g>
     </g>
     <g id="text_2">
      <!-- 1% -->
      <g transform="translate(125.25931 435.716562) scale(0.1 -0.1)">
       <defs>
        <path id="DejaVuSans-31" d="M 794 531 
L 1825 531 
L 1825 4091 
L 703 3866 
L 703 4441 
L 1819 4666 
L 2450 4666 
L 2450 531 
L 3481 531 
L 3481 0 
L 794 0 
L 794 531 
z
" transform="scale(0.015625)"/>
       </defs>
       <use xlink:href="#DejaVuSans-31"/>
       <use xlink:href="#DejaVuSans-25" transform="translate(63.623047 0)"/>
      </g>
     </g>
    </g>
    <g id="xtick_3">
     <g id="line2d_5">
      <path d="M 226.954795 421.118125 
L 226.954795 22.318125 
" clip-path="url(#p04ff8b33ea)" style="fill: none; stroke: #b0b0b0; stroke-opacity: 0.3; stroke-width: 0.8; stroke-linecap: square"/>
     </g>
     <g id="line2d_6">
      <g>
       <use xlink:href="#mc9f314cda7" x="226.954795" y="421.118125" style="stroke: #000000; stroke-width: 0.8"/>
      </g>
     </g>
     <g id="text_3">
      <!-- 3% -->
      <g transform="translate(219.022764 435.716562) scale(0.1 -0.1)">
       <defs>
        <path id="DejaVuSans-33" d="M 2597 2516 
Q 3050 2419 3304 2112 
Q 3559 1806 3559 1356 
Q 3559 666 3084 287 
Q 2609 -91 1734 -91 
Q 1441 -91 1130 -33 
Q 819 25 488 141 
L 488 750 
Q 750 597 1062 519 
Q 1375 441 1716 441 
Q 2309 441 2620 675 
Q 2931 909 2931 1356 
Q 2931 1769 2642 2001 
Q 2353 2234 1838 2234 
L 1294 2234 
L 1294 2753 
L 1863 2753 
Q 2328 2753 2575 2939 
Q 2822 3125 2822 3475 
Q 2822 3834 2567 4026 
Q 2313 4219 1838 4219 
Q 1578 4219 1281 4162 
Q 984 4106 628 3988 
L 628 4550 
Q 988 4650 1302 4700 
Q 1616 4750 1894 4750 
Q 2613 4750 3031 4423 
Q 3450 4097 3450 3541 
Q 3450 3153 3228 2886 
Q 3006 2619 2597 2516 
z
" transform="scale(0.015625)"/>
       </defs>
       <use xlink:href="#DejaVuSans-33"/>
       <use xlink:href="#DejaVuSans-25" transform="translate(63.623047 0)"/>
      </g>
     </g>
    </g>
    <g id="xtick_4">
     <g id="line2d_7">
      <path d="M 320.71825 421.118125 
L 320.71825 22.318125 
" clip-path="url(#p04ff8b33ea)" style="fill: none; stroke: #b0b0b0; stroke-opacity: 0.3; stroke-width: 0.8; stroke-linecap: square"/>
     </g>
     <g id="line2d_8">
      <g>
       <use xlink:href="#mc9f314cda7" x="320.71825" y="421.118125" style="stroke: #000000; stroke-width: 0.8"/>
      </g>
     </g>
     <g id="text_4">
      <!-- 5% -->
      <g transform="translate(312.786219 435.716562) scale(0.1 -0.1)">
       <defs>
        <path id="DejaVuSans-35" d="M 691 4666 
L 3169 4666 
L 3169 4134 
L 1269 4134 
L 1269 2991 
Q 1406 3038 1543 3061 
Q 1681 3084 1819 3084 
Q 2600 3084 3056 2656 
Q 3513 2228 3513 1497 
Q 3513 744 3044 326 
Q 2575 -91 1722 -91 
Q 1428 -91 1123 -41 
Q 819 9 494 109 
L 494 744 
Q 775 591 1075 516 
Q 1375 441 1709 441 
Q 2250 441 2565 725 
Q 2881 1009 2881 1497 
Q 2881 1984 2565 2268 
Q 2250 2553 1709 2553 
Q 1456 2553 1204 2497 
Q 953 2441 691 2322 
L 691 4666 
z
" transform="scale(0.015625)"/>
       </defs>
       <use xlink:href="#DejaVuSans-35"/>
       <use xlink:href="#DejaVuSans-25" transform="translate(63.623047 0)"/>
      </g>
     </g>
    </g>
    <g id="xtick_5">
     <g id="line2d_9">
      <path d="M 414.481705 421.118125 
L 414.481705 22.318125 
" clip-path="url(#p04ff8b33ea)" style="fill: none; stroke: #b0b0b0; stroke-opacity: 0.3; stroke-width: 0.8; stroke-linecap: square"/>
     </g>
     <g id="line2d_10">
      <g>
       <use xlink:href="#mc9f314cda7" x="414.481705" y="421.118125" style="stroke: #000000; stroke-width: 0.8"/>
      </g>
     </g>
     <g id="text_5">
      <!-- 7% -->
      <g transform="translate(406.549673 435.716562) scale(0.1 -0.1)">
       <defs>
        <path id="DejaVuSans-37" d="M 525 4666 
L 3525 4666 
L 3525 4397 
L 1831 0 
L 1172 0 
L 2766 4134 
L 525 4134 
L 525 4666 
z
" transform="scale(0.015625)"/>
       </defs>
       <use xlink:href="#DejaVuSans-37"/>
       <use xlink:href="#DejaVuSans-25" transform="translate(63.623047 0)"/>
      </g>
     </g>
    </g>
    <g id="xtick_6">
     <g id="line2d_11">
      <path d="M 555.126886 421.118125 
L 555.126886 22.318125 
" clip-path="url(#p04ff8b33ea)" style="fill: none; stroke: #b0b0b0; stroke-opacity: 0.3; stroke-width: 0.8; stroke-linecap: square"/>
     </g>
     <g id="line2d_12">
      <g>
       <use xlink:href="#mc9f314cda7" x="555.126886" y="421.118125" style="stroke: #000000; stroke-width: 0.8"/>
      </g>
     </g>
     <g id="text_6">
      <!-- 10% -->
      <g transform="translate(544.013605 435.716562) scale(0.1 -0.1)">
       <use xlink:href="#DejaVuSans-31"/>
       <use xlink:href="#DejaVuSans-30" transform="translate(63.623047 0)"/>
       <use xlink:href="#DejaVuSans-25" transform="translate(127.246094 0)"/>
      </g>
     </g>
    </g>
    <g id="text_7">
     <!-- Depolarizing Noise Level -->
     <g transform="translate(259.05575 449.394687) scale(0.1 -0.1)">
      <defs>
       <path id="DejaVuSans-44" d="M 1259 4147 
L 1259 519 
L 2022 519 
Q 2988 519 3436 956 
Q 3884 1394 3884 2338 
Q 3884 3275 3436 3711 
Q 2988 4147 2022 4147 
L 1259 4147 
z
M 628 4666 
L 1925 4666 
Q 3281 4666 3915 4102 
Q 4550 3538 4550 2338 
Q 4550 1131 3912 565 
Q 3275 0 1925 0 
L 628 0 
L 628 4666 
z
" transform="scale(0.015625)"/>
       <path id="DejaVuSans-65" d="M 3597 1894 
L 3597 1613 
L 953 1613 
Q 991 1019 1311 708 
Q 1631 397 2203 397 
Q 2534 397 2845 478 
Q 3156 559 3463 722 
L 3463 178 
Q 3153 47 2828 -22 
Q 2503 -91 2169 -91 
Q 1331 -91 842 396 
Q 353 884 353 1716 
Q 353 2575 817 3079 
Q 1281 3584 2069 3584 
Q 2775 3584 3186 3129 
Q 3597 2675 3597 1894 
z
M 3022 2063 
Q 3016 2534 2758 2815 
Q 2500 3097 2075 3097 
Q 1594 3097 1305 2825 
Q 1016 2553 972 2059 
L 3022 2063 
z
" transform="scale(0.015625)"/>
       <path id="DejaVuSans-70" d="M 1159 525 
L 1159 -1331 
L 581 -1331 
L 581 3500 
L 1159 3500 
L 1159 2969 
Q 1341 3281 1617 3432 
Q 1894 3584 2278 3584 
Q 2916 3584 3314 3078 
Q 3713 2572 3713 1747 
Q 3713 922 3314 415 
Q 2916 -91 2278 -91 
Q 1894 -91 1617 61 
Q 1341 213 1159 525 
z
M 3116 1747 
Q 3116 2381 2855 2742 
Q 2594 3103 2138 3103 
Q 1681 3103 1420 2742 
Q 1159 2381 1159 1747 
Q 1159 1113 1420 752 
Q 1681 391 2138 391 
Q 2594 391 2855 752 
Q 3116 1113 3116 1747 
z
" transform="scale(0.015625)"/>
       <path id="DejaVuSans-6f" d="M 1959 3097 
Q 1497 3097 1228 2736 
Q 959 2375 959 1747 
Q 959 1119 1226 758 
Q 1494 397 1959 397 
Q 2419 397 2687 759 
Q 2956 1122 2956 1747 
Q 2956 2369 2687 2733 
Q 2419 3097 1959 3097 
z
M 1959 3584 
Q 2709 3584 3137 3096 
Q 3566 2609 3566 1747 
Q 3566 888 3137 398 
Q 2709 -91 1959 -91 
Q 1206 -91 779 398 
Q 353 888 353 1747 
Q 353 2609 779 3096 
Q 1206 3584 1959 3584 
z
" transform="scale(0.015625)"/>
       <path id="DejaVuSans-6c" d="M 603 4863 
L 1178 4863 
L 1178 0 
L 603 0 
L 603 4863 
z
" transform="scale(0.015625)"/>
       <path id="DejaVuSans-61" d="M 2194 1759 
Q 1497 1759 1228 1600 
Q 959 1441 959 1056 
Q 959 750 1161 570 
Q 1363 391 1709 391 
Q 2188 391 2477 730 
Q 2766 1069 2766 1631 
L 2766 1759 
L 2194 1759 
z
M 3341 1997 
L 3341 0 
L 2766 0 
L 2766 531 
Q 2569 213 2275 61 
Q 1981 -91 1556 -91 
Q 1019 -91 701 211 
Q 384 513 384 1019 
Q 384 1609 779 1909 
Q 1175 2209 1959 2209 
L 2766 2209 
L 2766 2266 
Q 2766 2663 2505 2880 
Q 2244 3097 1772 3097 
Q 1472 3097 1187 3025 
Q 903 2953 641 2809 
L 641 3341 
Q 956 3463 1253 3523 
Q 1550 3584 1831 3584 
Q 2591 3584 2966 3190 
Q 3341 2797 3341 1997 
z
" transform="scale(0.015625)"/>
       <path id="DejaVuSans-72" d="M 2631 2963 
Q 2534 3019 2420 3045 
Q 2306 3072 2169 3072 
Q 1681 3072 1420 2755 
Q 1159 2438 1159 1844 
L 1159 0 
L 581 0 
L 581 3500 
L 1159 3500 
L 1159 2956 
Q 1341 3275 1631 3429 
Q 1922 3584 2338 3584 
Q 2397 3584 2469 3576 
Q 2541 3569 2628 3553 
L 2631 2963 
z
" transform="scale(0.015625)"/>
       <path id="DejaVuSans-69" d="M 603 3500 
L 1178 3500 
L 1178 0 
L 603 0 
L 603 3500 
z
M 603 4863 
L 1178 4863 
L 1178 4134 
L 603 4134 
L 603 4863 
z
" transform="scale(0.015625)"/>
       <path id="DejaVuSans-7a" d="M 353 3500 
L 3084 3500 
L 3084 2975 
L 922 459 
L 3084 459 
L 3084 0 
L 275 0 
L 275 525 
L 2438 3041 
L 353 3041 
L 353 3500 
z
" transform="scale(0.015625)"/>
       <path id="DejaVuSans-6e" d="M 3513 2113 
L 3513 0 
L 2938 0 
L 2938 2094 
Q 2938 2591 2744 2837 
Q 2550 3084 2163 3084 
Q 1697 3084 1428 2787 
Q 1159 2491 1159 1978 
L 1159 0 
L 581 0 
L 581 3500 
L 1159 3500 
L 1159 2956 
Q 1366 3272 1645 3428 
Q 1925 3584 2291 3584 
Q 2894 3584 3203 3211 
Q 3513 2838 3513 2113 
z
" transform="scale(0.015625)"/>
       <path id="DejaVuSans-67" d="M 2906 1791 
Q 2906 2416 2648 2759 
Q 2391 3103 1925 3103 
Q 1463 3103 1205 2759 
Q 947 2416 947 1791 
Q 947 1169 1205 825 
Q 1463 481 1925 481 
Q 2391 481 2648 825 
Q 2906 1169 2906 1791 
z
M 3481 434 
Q 3481 -459 3084 -895 
Q 2688 -1331 1869 -1331 
Q 1566 -1331 1297 -1286 
Q 1028 -1241 775 -1147 
L 775 -588 
Q 1028 -725 1275 -790 
Q 1522 -856 1778 -856 
Q 2344 -856 2625 -561 
Q 2906 -266 2906 331 
L 2906 616 
Q 2728 306 2450 153 
Q 2172 0 1784 0 
Q 1141 0 747 490 
Q 353 981 353 1791 
Q 353 2603 747 3093 
Q 1141 3584 1784 3584 
Q 2172 3584 2450 3431 
Q 2728 3278 2906 2969 
L 2906 3500 
L 3481 3500 
L 3481 434 
z
" transform="scale(0.015625)"/>
       <path id="DejaVuSans-20" transform="scale(0.015625)"/>
       <path id="DejaVuSans-4e" d="M 628 4666 
L 1478 4666 
L 3547 763 
L 3547 4666 
L 4159 4666 
L 4159 0 
L 3309 0 
L 1241 3903 
L 1241 0 
L 628 0 
L 628 4666 
z
" transform="scale(0.015625)"/>
       <path id="DejaVuSans-73" d="M 2834 3397 
L 2834 2853 
Q 2591 2978 2328 3040 
Q 2066 3103 1784 3103 
Q 1356 3103 1142 2972 
Q 928 2841 928 2578 
Q 928 2378 1081 2264 
Q 1234 2150 1697 2047 
L 1894 2003 
Q 2506 1872 2764 1633 
Q 3022 1394 3022 966 
Q 3022 478 2636 193 
Q 2250 -91 1575 -91 
Q 1294 -91 989 -36 
Q 684 19 347 128 
L 347 722 
Q 666 556 975 473 
Q 1284 391 1588 391 
Q 1994 391 2212 530 
Q 2431 669 2431 922 
Q 2431 1156 2273 1281 
Q 2116 1406 1581 1522 
L 1381 1569 
Q 847 1681 609 1914 
Q 372 2147 372 2553 
Q 372 3047 722 3315 
Q 1072 3584 1716 3584 
Q 2034 3584 2315 3537 
Q 2597 3491 2834 3397 
z
" transform="scale(0.015625)"/>
       <path id="DejaVuSans-4c" d="M 628 4666 
L 1259 4666 
L 1259 531 
L 3531 531 
L 3531 0 
L 628 0 
L 628 4666 
z
" transform="scale(0.015625)"/>
       <path id="DejaVuSans-76" d="M 191 3500 
L 800 3500 
L 1894 563 
L 2988 3500 
L 3597 3500 
L 2284 0 
L 1503 0 
L 191 3500 
z
" transform="scale(0.015625)"/>
      </defs>
      <use xlink:href="#DejaVuSans-44"/>
      <use xlink:href="#DejaVuSans-65" transform="translate(77.001953 0)"/>
      <use xlink:href="#DejaVuSans-70" transform="translate(138.525391 0)"/>
      <use xlink:href="#DejaVuSans-6f" transform="translate(202.001953 0)"/>
      <use xlink:href="#DejaVuSans-6c" transform="translate(263.183594 0)"/>
      <use xlink:href="#DejaVuSans-61" transform="translate(290.966797 0)"/>
      <use xlink:href="#DejaVuSans-72" transform="translate(352.246094 0)"/>
      <use xlink:href="#DejaVuSans-69" transform="translate(393.359375 0)"/>
      <use xlink:href="#DejaVuSans-7a" transform="translate(421.142578 0)"/>
      <use xlink:href="#DejaVuSans-69" transform="translate(473.632812 0)"/>
      <use xlink:href="#DejaVuSans-6e" transform="translate(501.416016 0)"/>
      <use xlink:href="#DejaVuSans-67" transform="translate(564.794922 0)"/>
      <use xlink:href="#DejaVuSans-20" transform="translate(628.271484 0)"/>
      <use xlink:href="#DejaVuSans-4e" transform="translate(660.058594 0)"/>
      <use xlink:href="#DejaVuSans-6f" transform="translate(734.863281 0)"/>
      <use xlink:href="#DejaVuSans-69" transform="translate(796.044922 0)"/>
      <use xlink:href="#DejaVuSans-73" transform="translate(823.828125 0)"/>
      <use xlink:href="#DejaVuSans-65" transform="translate(875.927734 0)"/>
      <use xlink:href="#DejaVuSans-20" transform="translate(937.451172 0)"/>
      <use xlink:href="#DejaVuSans-4c" transform="translate(969.238281 0)"/>
      <use xlink:href="#DejaVuSans-65" transform="translate(1023.201172 0)"/>
      <use xlink:href="#DejaVuSans-76" transform="translate(1084.724609 0)"/>
      <use xlink:href="#DejaVuSans-65" transform="translate(1143.904297 0)"/>
      <use xlink:href="#DejaVuSans-6c" transform="translate(1205.427734 0)"/>
     </g>
    </g>
   </g>
   <g id="matplotlib.axis_2">
    <g id="ytick_1">
     <g id="line2d_13">
      <path d="M 62.86875 421.118125 
L 578.56775 421.118125 
" clip-path="url(#p04ff8b33ea)" style="fill: none; stroke: #b0b0b0; stroke-opacity: 0.3; stroke-width: 0.8; stroke-linecap: square"/>
     </g>
     <g id="line2d_14">
      <defs>
       <path id="m496e6fb9ed" d="M 0 0 
L -3.5 0 
" style="stroke: #000000; stroke-width: 0.8"/>
      </defs>
      <g>
       <use xlink:href="#m496e6fb9ed" x="62.86875" y="421.118125" style="stroke: #000000; stroke-width: 0.8"/>
      </g>
     </g>
     <g id="text_8">
      <!-- 0.0000 -->
      <g transform="translate(20.878125 424.917344) scale(0.1 -0.1)">
       <defs>
        <path id="DejaVuSans-2e" d="M 684 794 
L 1344 794 
L 1344 0 
L 684 0 
L 684 794 
z
" transform="scale(0.015625)"/>
       </defs>
       <use xlink:href="#DejaVuSans-30"/>
       <use xlink:href="#DejaVuSans-2e" transform="translate(63.623047 0)"/>
       <use xlink:href="#DejaVuSans-30" transform="translate(95.410156 0)"/>
       <use xlink:href="#DejaVuSans-30" transform="translate(159.033203 0)"/>
       <use xlink:href="#DejaVuSans-30" transform="translate(222.65625 0)"/>
       <use xlink:href="#DejaVuSans-30" transform="translate(286.279297 0)"/>
      </g>
     </g>
    </g>
    <g id="ytick_2">
     <g id="line2d_15">
      <path d="M 62.86875 358.714209 
L 578.56775 358.714209 
" clip-path="url(#p04ff8b33ea)" style="fill: none; stroke: #b0b0b0; stroke-opacity: 0.3; stroke-width: 0.8; stroke-linecap: square"/>
     </g>
     <g id="line2d_16">
      <g>
       <use xlink:href="#m496e6fb9ed" x="62.86875" y="358.714209" style="stroke: #000000; stroke-width: 0.8"/>
      </g>
     </g>
     <g id="text_9">
      <!-- 0.0002 -->
      <g transform="translate(20.878125 362.513428) scale(0.1 -0.1)">
       <defs>
        <path id="DejaVuSans-32" d="M 1228 531 
L 3431 531 
L 3431 0 
L 469 0 
L 469 531 
Q 828 903 1448 1529 
Q 2069 2156 2228 2338 
Q 2531 2678 2651 2914 
Q 2772 3150 2772 3378 
Q 2772 3750 2511 3984 
Q 2250 4219 1831 4219 
Q 1534 4219 1204 4116 
Q 875 4013 500 3803 
L 500 4441 
Q 881 4594 1212 4672 
Q 1544 4750 1819 4750 
Q 2544 4750 2975 4387 
Q 3406 4025 3406 3419 
Q 3406 3131 3298 2873 
Q 3191 2616 2906 2266 
Q 2828 2175 2409 1742 
Q 1991 1309 1228 531 
z
" transform="scale(0.015625)"/>
       </defs>
       <use xlink:href="#DejaVuSans-30"/>
       <use xlink:href="#DejaVuSans-2e" transform="translate(63.623047 0)"/>
       <use xlink:href="#DejaVuSans-30" transform="translate(95.410156 0)"/>
       <use xlink:href="#DejaVuSans-30" transform="translate(159.033203 0)"/>
       <use xlink:href="#DejaVuSans-30" transform="translate(222.65625 0)"/>
       <use xlink:href="#DejaVuSans-32" transform="translate(286.279297 0)"/>
      </g>
     </g>
    </g>
    <g id="ytick_3">
     <g id="line2d_17">
      <path d="M 62.86875 296.310293 
L 578.56775 296.310293 
" clip-path="url(#p04ff8b33ea)" style="fill: none; stroke: #b0b0b0; stroke-opacity: 0.3; stroke-width: 0.8; stroke-linecap: square"/>
     </g>
     <g id="line2d_18">
      <g>
       <use xlink:href="#m496e6fb9ed" x="62.86875" y="296.310293" style="stroke: #000000; stroke-width: 0.8"/>
      </g>
     </g>
     <g id="text_10">
      <!-- 0.0004 -->
      <g transform="translate(20.878125 300.109511) scale(0.1 -0.1)">
       <defs>
        <path id="DejaVuSans-34" d="M 2419 4116 
L 825 1625 
L 2419 1625 
L 2419 4116 
z
M 2253 4666 
L 3047 4666 
L 3047 1625 
L 3713 1625 
L 3713 1100 
L 3047 1100 
L 3047 0 
L 2419 0 
L 2419 1100 
L 313 1100 
L 313 1709 
L 2253 4666 
z
" transform="scale(0.015625)"/>
       </defs>
       <use xlink:href="#DejaVuSans-30"/>
       <use xlink:href="#DejaVuSans-2e" transform="translate(63.623047 0)"/>
       <use xlink:href="#DejaVuSans-30" transform="translate(95.410156 0)"/>
       <use xlink:href="#DejaVuSans-30" transform="translate(159.033203 0)"/>
       <use xlink:href="#DejaVuSans-30" transform="translate(222.65625 0)"/>
       <use xlink:href="#DejaVuSans-34" transform="translate(286.279297 0)"/>
      </g>
     </g>
    </g>
    <g id="ytick_4">
     <g id="line2d_19">
      <path d="M 62.86875 233.906376 
L 578.56775 233.906376 
" clip-path="url(#p04ff8b33ea)" style="fill: none; stroke: #b0b0b0; stroke-opacity: 0.3; stroke-width: 0.8; stroke-linecap: square"/>
     </g>
     <g id="line2d_20">
      <g>
       <use xlink:href="#m496e6fb9ed" x="62.86875" y="233.906376" style="stroke: #000000; stroke-width: 0.8"/>
      </g>
     </g>
     <g id="text_11">
      <!-- 0.0006 -->
      <g transform="translate(20.878125 237.705595) scale(0.1 -0.1)">
       <defs>
        <path id="DejaVuSans-36" d="M 2113 2584 
Q 1688 2584 1439 2293 
Q 1191 2003 1191 1497 
Q 1191 994 1439 701 
Q 1688 409 2113 409 
Q 2538 409 2786 701 
Q 3034 994 3034 1497 
Q 3034 2003 2786 2293 
Q 2538 2584 2113 2584 
z
M 3366 4563 
L 3366 3988 
Q 3128 4100 2886 4159 
Q 2644 4219 2406 4219 
Q 1781 4219 1451 3797 
Q 1122 3375 1075 2522 
Q 1259 2794 1537 2939 
Q 1816 3084 2150 3084 
Q 2853 3084 3261 2657 
Q 3669 2231 3669 1497 
Q 3669 778 3244 343 
Q 2819 -91 2113 -91 
Q 1303 -91 875 529 
Q 447 1150 447 2328 
Q 447 3434 972 4092 
Q 1497 4750 2381 4750 
Q 2619 4750 2861 4703 
Q 3103 4656 3366 4563 
z
" transform="scale(0.015625)"/>
       </defs>
       <use xlink:href="#DejaVuSans-30"/>
       <use xlink:href="#DejaVuSans-2e" transform="translate(63.623047 0)"/>
       <use xlink:href="#DejaVuSans-30" transform="translate(95.410156 0)"/>
       <use xlink:href="#DejaVuSans-30" transform="translate(159.033203 0)"/>
       <use xlink:href="#DejaVuSans-30" transform="translate(222.65625 0)"/>
       <use xlink:href="#DejaVuSans-36" transform="translate(286.279297 0)"/>
      </g>
     </g>
    </g>
    <g id="ytick_5">
     <g id="line2d_21">
      <path d="M 62.86875 171.50246 
L 578.56775 171.50246 
" clip-path="url(#p04ff8b33ea)" style="fill: none; stroke: #b0b0b0; stroke-opacity: 0.3; stroke-width: 0.8; stroke-linecap: square"/>
     </g>
     <g id="line2d_22">
      <g>
       <use xlink:href="#m496e6fb9ed" x="62.86875" y="171.50246" style="stroke: #000000; stroke-width: 0.8"/>
      </g>
     </g>
     <g id="text_12">
      <!-- 0.0008 -->
      <g transform="translate(20.878125 175.301679) scale(0.1 -0.1)">
       <defs>
        <path id="DejaVuSans-38" d="M 2034 2216 
Q 1584 2216 1326 1975 
Q 1069 1734 1069 1313 
Q 1069 891 1326 650 
Q 1584 409 2034 409 
Q 2484 409 2743 651 
Q 3003 894 3003 1313 
Q 3003 1734 2745 1975 
Q 2488 2216 2034 2216 
z
M 1403 2484 
Q 997 2584 770 2862 
Q 544 3141 544 3541 
Q 544 4100 942 4425 
Q 1341 4750 2034 4750 
Q 2731 4750 3128 4425 
Q 3525 4100 3525 3541 
Q 3525 3141 3298 2862 
Q 3072 2584 2669 2484 
Q 3125 2378 3379 2068 
Q 3634 1759 3634 1313 
Q 3634 634 3220 271 
Q 2806 -91 2034 -91 
Q 1263 -91 848 271 
Q 434 634 434 1313 
Q 434 1759 690 2068 
Q 947 2378 1403 2484 
z
M 1172 3481 
Q 1172 3119 1398 2916 
Q 1625 2713 2034 2713 
Q 2441 2713 2670 2916 
Q 2900 3119 2900 3481 
Q 2900 3844 2670 4047 
Q 2441 4250 2034 4250 
Q 1625 4250 1398 4047 
Q 1172 3844 1172 3481 
z
" transform="scale(0.015625)"/>
       </defs>
       <use xlink:href="#DejaVuSans-30"/>
       <use xlink:href="#DejaVuSans-2e" transform="translate(63.623047 0)"/>
       <use xlink:href="#DejaVuSans-30" transform="translate(95.410156 0)"/>
       <use xlink:href="#DejaVuSans-30" transform="translate(159.033203 0)"/>
       <use xlink:href="#DejaVuSans-30" transform="translate(222.65625 0)"/>
       <use xlink:href="#DejaVuSans-38" transform="translate(286.279297 0)"/>
      </g>
     </g>
    </g>
    <g id="ytick_6">
     <g id="line2d_23">
      <path d="M 62.86875 109.098544 
L 578.56775 109.098544 
" clip-path="url(#p04ff8b33ea)" style="fill: none; stroke: #b0b0b0; stroke-opacity: 0.3; stroke-width: 0.8; stroke-linecap: square"/>
     </g>
     <g id="line2d_24">
      <g>
       <use xlink:href="#m496e6fb9ed" x="62.86875" y="109.098544" style="stroke: #000000; stroke-width: 0.8"/>
      </g>
     </g>
     <g id="text_13">
      <!-- 0.0010 -->
      <g transform="translate(20.878125 112.897763) scale(0.1 -0.1)">
       <use xlink:href="#DejaVuSans-30"/>
       <use xlink:href="#DejaVuSans-2e" transform="translate(63.623047 0)"/>
       <use xlink:href="#DejaVuSans-30" transform="translate(95.410156 0)"/>
       <use xlink:href="#DejaVuSans-30" transform="translate(159.033203 0)"/>
       <use xlink:href="#DejaVuSans-31" transform="translate(222.65625 0)"/>
       <use xlink:href="#DejaVuSans-30" transform="translate(286.279297 0)"/>
      </g>
     </g>
    </g>
    <g id="ytick_7">
     <g id="line2d_25">
      <path d="M 62.86875 46.694628 
L 578.56775 46.694628 
" clip-path="url(#p04ff8b33ea)" style="fill: none; stroke: #b0b0b0; stroke-opacity: 0.3; stroke-width: 0.8; stroke-linecap: square"/>
     </g>
     <g id="line2d_26">
      <g>
       <use xlink:href="#m496e6fb9ed" x="62.86875" y="46.694628" style="stroke: #000000; stroke-width: 0.8"/>
      </g>
     </g>
     <g id="text_14">
      <!-- 0.0012 -->
      <g transform="translate(20.878125 50.493847) scale(0.1 -0.1)">
       <use xlink:href="#DejaVuSans-30"/>
       <use xlink:href="#DejaVuSans-2e" transform="translate(63.623047 0)"/>
       <use xlink:href="#DejaVuSans-30" transform="translate(95.410156 0)"/>
       <use xlink:href="#DejaVuSans-30" transform="translate(159.033203 0)"/>
       <use xlink:href="#DejaVuSans-31" transform="translate(222.65625 0)"/>
       <use xlink:href="#DejaVuSans-32" transform="translate(286.279297 0)"/>
      </g>
     </g>
    </g>
    <g id="text_15">
     <!-- Accuracy Variance -->
     <g transform="translate(14.798438 267.735312) rotate(-90) scale(0.1 -0.1)">
      <defs>
       <path id="DejaVuSans-41" d="M 2188 4044 
L 1331 1722 
L 3047 1722 
L 2188 4044 
z
M 1831 4666 
L 2547 4666 
L 4325 0 
L 3669 0 
L 3244 1197 
L 1141 1197 
L 716 0 
L 50 0 
L 1831 4666 
z
" transform="scale(0.015625)"/>
       <path id="DejaVuSans-63" d="M 3122 3366 
L 3122 2828 
Q 2878 2963 2633 3030 
Q 2388 3097 2138 3097 
Q 1578 3097 1268 2742 
Q 959 2388 959 1747 
Q 959 1106 1268 751 
Q 1578 397 2138 397 
Q 2388 397 2633 464 
Q 2878 531 3122 666 
L 3122 134 
Q 2881 22 2623 -34 
Q 2366 -91 2075 -91 
Q 1284 -91 818 406 
Q 353 903 353 1747 
Q 353 2603 823 3093 
Q 1294 3584 2113 3584 
Q 2378 3584 2631 3529 
Q 2884 3475 3122 3366 
z
" transform="scale(0.015625)"/>
       <path id="DejaVuSans-75" d="M 544 1381 
L 544 3500 
L 1119 3500 
L 1119 1403 
Q 1119 906 1312 657 
Q 1506 409 1894 409 
Q 2359 409 2629 706 
Q 2900 1003 2900 1516 
L 2900 3500 
L 3475 3500 
L 3475 0 
L 2900 0 
L 2900 538 
Q 2691 219 2414 64 
Q 2138 -91 1772 -91 
Q 1169 -91 856 284 
Q 544 659 544 1381 
z
M 1991 3584 
L 1991 3584 
z
" transform="scale(0.015625)"/>
       <path id="DejaVuSans-79" d="M 2059 -325 
Q 1816 -950 1584 -1140 
Q 1353 -1331 966 -1331 
L 506 -1331 
L 506 -850 
L 844 -850 
Q 1081 -850 1212 -737 
Q 1344 -625 1503 -206 
L 1606 56 
L 191 3500 
L 800 3500 
L 1894 763 
L 2988 3500 
L 3597 3500 
L 2059 -325 
z
" transform="scale(0.015625)"/>
       <path id="DejaVuSans-56" d="M 1831 0 
L 50 4666 
L 709 4666 
L 2188 738 
L 3669 4666 
L 4325 4666 
L 2547 0 
L 1831 0 
z
" transform="scale(0.015625)"/>
      </defs>
      <use xlink:href="#DejaVuSans-41"/>
      <use xlink:href="#DejaVuSans-63" transform="translate(66.658203 0)"/>
      <use xlink:href="#DejaVuSans-63" transform="translate(121.638672 0)"/>
      <use xlink:href="#DejaVuSans-75" transform="translate(176.619141 0)"/>
      <use xlink:href="#DejaVuSans-72" transform="translate(239.998047 0)"/>
      <use xlink:href="#DejaVuSans-61" transform="translate(281.111328 0)"/>
      <use xlink:href="#DejaVuSans-63" transform="translate(342.390625 0)"/>
      <use xlink:href="#DejaVuSans-79" transform="translate(397.371094 0)"/>
      <use xlink:href="#DejaVuSans-20" transform="translate(456.550781 0)"/>
      <use xlink:href="#DejaVuSans-56" transform="translate(488.337891 0)"/>
      <use xlink:href="#DejaVuSans-61" transform="translate(548.996094 0)"/>
      <use xlink:href="#DejaVuSans-72" transform="translate(610.275391 0)"/>
      <use xlink:href="#DejaVuSans-69" transform="translate(651.388672 0)"/>
      <use xlink:href="#DejaVuSans-61" transform="translate(679.171875 0)"/>
      <use xlink:href="#DejaVuSans-6e" transform="translate(740.451172 0)"/>
      <use xlink:href="#DejaVuSans-63" transform="translate(803.830078 0)"/>
      <use xlink:href="#DejaVuSans-65" transform="translate(858.810547 0)"/>
     </g>
    </g>
   </g>
   <g id="line2d_27">
    <path d="M 86.309614 221.317651 
L 133.191341 210.72486 
L 226.954795 192.384972 
L 320.71825 149.883478 
L 414.481705 129.197883 
L 555.126886 89.51349 
" clip-path="url(#p04ff8b33ea)" style="fill: none; stroke-dasharray: 7.4,3.2; stroke-dashoffset: 0; stroke: #1f77b4; stroke-width: 2"/>
    <defs>
     <path id="mda64885316" d="M 0 3 
C 0.795609 3 1.55874 2.683901 2.12132 2.12132 
C 2.683901 1.55874 3 0.795609 3 0 
C 3 -0.795609 2.683901 -1.55874 2.12132 -2.12132 
C 1.55874 -2.683901 0.795609 -3 0 -3 
C -0.795609 -3 -1.55874 -2.683901 -2.12132 -2.12132 
C -2.683901 -1.55874 -3 -0.795609 -3 0 
C -3 0.795609 -2.683901 1.55874 -2.12132 2.12132 
C -1.55874 2.683901 -0.795609 3 0 3 
z
" style="stroke: #1f77b4"/>
    </defs>
    <g clip-path="url(#p04ff8b33ea)">
     <use xlink:href="#mda64885316" x="86.309614" y="221.317651" style="fill: #1f77b4; stroke: #1f77b4"/>
     <use xlink:href="#mda64885316" x="133.191341" y="210.72486" style="fill: #1f77b4; stroke: #1f77b4"/>
     <use xlink:href="#mda64885316" x="226.954795" y="192.384972" style="fill: #1f77b4; stroke: #1f77b4"/>
     <use xlink:href="#mda64885316" x="320.71825" y="149.883478" style="fill: #1f77b4; stroke: #1f77b4"/>
     <use xlink:href="#mda64885316" x="414.481705" y="129.197883" style="fill: #1f77b4; stroke: #1f77b4"/>
     <use xlink:href="#mda64885316" x="555.126886" y="89.51349" style="fill: #1f77b4; stroke: #1f77b4"/>
    </g>
   </g>
   <g id="line2d_28">
    <path d="M 86.309614 221.317651 
L 133.191341 158.85963 
L 226.954795 115.687511 
L 320.71825 88.982969 
L 414.481705 82.311355 
L 555.126886 57.809224 
" clip-path="url(#p04ff8b33ea)" style="fill: none; stroke: #ff7f0e; stroke-width: 2; stroke-linecap: square"/>
    <defs>
     <path id="m44333bcab4" d="M 0 3 
C 0.795609 3 1.55874 2.683901 2.12132 2.12132 
C 2.683901 1.55874 3 0.795609 3 0 
C 3 -0.795609 2.683901 -1.55874 2.12132 -2.12132 
C 1.55874 -2.683901 0.795609 -3 0 -3 
C -0.795609 -3 -1.55874 -2.683901 -2.12132 -2.12132 
C -2.683901 -1.55874 -3 -0.795609 -3 0 
C -3 0.795609 -2.683901 1.55874 -2.12132 2.12132 
C -1.55874 2.683901 -0.795609 3 0 3 
z
" style="stroke: #ff7f0e"/>
    </defs>
    <g clip-path="url(#p04ff8b33ea)">
     <use xlink:href="#m44333bcab4" x="86.309614" y="221.317651" style="fill: #ff7f0e; stroke: #ff7f0e"/>
     <use xlink:href="#m44333bcab4" x="133.191341" y="158.85963" style="fill: #ff7f0e; stroke: #ff7f0e"/>
     <use xlink:href="#m44333bcab4" x="226.954795" y="115.687511" style="fill: #ff7f0e; stroke: #ff7f0e"/>
     <use xlink:href="#m44333bcab4" x="320.71825" y="88.982969" style="fill: #ff7f0e; stroke: #ff7f0e"/>
     <use xlink:href="#m44333bcab4" x="414.481705" y="82.311355" style="fill: #ff7f0e; stroke: #ff7f0e"/>
     <use xlink:href="#m44333bcab4" x="555.126886" y="57.809224" style="fill: #ff7f0e; stroke: #ff7f0e"/>
    </g>
   </g>
   <g id="line2d_29">
    <path d="M 86.309614 349.980229 
L 133.191341 332.274758 
L 226.954795 292.790632 
L 320.71825 258.310618 
L 414.481705 234.473454 
L 555.126886 195.687601 
" clip-path="url(#p04ff8b33ea)" style="fill: none; stroke-dasharray: 7.4,3.2; stroke-dashoffset: 0; stroke: #2ca02c; stroke-width: 2"/>
    <defs>
     <path id="m0a746aa75e" d="M 0 3 
C 0.795609 3 1.55874 2.683901 2.12132 2.12132 
C 2.683901 1.55874 3 0.795609 3 0 
C 3 -0.795609 2.683901 -1.55874 2.12132 -2.12132 
C 1.55874 -2.683901 0.795609 -3 0 -3 
C -0.795609 -3 -1.55874 -2.683901 -2.12132 -2.12132 
C -2.683901 -1.55874 -3 -0.795609 -3 0 
C -3 0.795609 -2.683901 1.55874 -2.12132 2.12132 
C -1.55874 2.683901 -0.795609 3 0 3 
z
" style="stroke: #2ca02c"/>
    </defs>
    <g clip-path="url(#p04ff8b33ea)">
     <use xlink:href="#m0a746aa75e" x="86.309614" y="349.980229" style="fill: #2ca02c; stroke: #2ca02c"/>
     <use xlink:href="#m0a746aa75e" x="133.191341" y="332.274758" style="fill: #2ca02c; stroke: #2ca02c"/>
     <use xlink:href="#m0a746aa75e" x="226.954795" y="292.790632" style="fill: #2ca02c; stroke: #2ca02c"/>
     <use xlink:href="#m0a746aa75e" x="320.71825" y="258.310618" style="fill: #2ca02c; stroke: #2ca02c"/>
     <use xlink:href="#m0a746aa75e" x="414.481705" y="234.473454" style="fill: #2ca02c; stroke: #2ca02c"/>
     <use xlink:href="#m0a746aa75e" x="555.126886" y="195.687601" style="fill: #2ca02c; stroke: #2ca02c"/>
    </g>
   </g>
   <g id="line2d_30">
    <path d="M 86.309614 349.980229 
L 133.191341 305.759614 
L 226.954795 236.142933 
L 320.71825 201.673615 
L 414.481705 183.944229 
L 555.126886 164.296752 
" clip-path="url(#p04ff8b33ea)" style="fill: none; stroke: #d62728; stroke-width: 2; stroke-linecap: square"/>
    <defs>
     <path id="m5c3106b741" d="M 0 3 
C 0.795609 3 1.55874 2.683901 2.12132 2.12132 
C 2.683901 1.55874 3 0.795609 3 0 
C 3 -0.795609 2.683901 -1.55874 2.12132 -2.12132 
C 1.55874 -2.683901 0.795609 -3 0 -3 
C -0.795609 -3 -1.55874 -2.683901 -2.12132 -2.12132 
C -2.683901 -1.55874 -3 -0.795609 -3 0 
C -3 0.795609 -2.683901 1.55874 -2.12132 2.12132 
C -1.55874 2.683901 -0.795609 3 0 3 
z
" style="stroke: #d62728"/>
    </defs>
    <g clip-path="url(#p04ff8b33ea)">
     <use xlink:href="#m5c3106b741" x="86.309614" y="349.980229" style="fill: #d62728; stroke: #d62728"/>
     <use xlink:href="#m5c3106b741" x="133.191341" y="305.759614" style="fill: #d62728; stroke: #d62728"/>
     <use xlink:href="#m5c3106b741" x="226.954795" y="236.142933" style="fill: #d62728; stroke: #d62728"/>
     <use xlink:href="#m5c3106b741" x="320.71825" y="201.673615" style="fill: #d62728; stroke: #d62728"/>
     <use xlink:href="#m5c3106b741" x="414.481705" y="183.944229" style="fill: #d62728; stroke: #d62728"/>
     <use xlink:href="#m5c3106b741" x="555.126886" y="164.296752" style="fill: #d62728; stroke: #d62728"/>
    </g>
   </g>
   <g id="line2d_31">
    <path d="M 86.309614 412.720215 
L 133.191341 411.758482 
L 226.954795 404.509095 
L 320.71825 381.80978 
L 414.481705 356.642699 
L 555.126886 326.719935 
" clip-path="url(#p04ff8b33ea)" style="fill: none; stroke-dasharray: 7.4,3.2; stroke-dashoffset: 0; stroke: #9467bd; stroke-width: 2"/>
    <defs>
     <path id="m29cad471fa" d="M 0 3 
C 0.795609 3 1.55874 2.683901 2.12132 2.12132 
C 2.683901 1.55874 3 0.795609 3 0 
C 3 -0.795609 2.683901 -1.55874 2.12132 -2.12132 
C 1.55874 -2.683901 0.795609 -3 0 -3 
C -0.795609 -3 -1.55874 -2.683901 -2.12132 -2.12132 
C -2.683901 -1.55874 -3 -0.795609 -3 0 
C -3 0.795609 -2.683901 1.55874 -2.12132 2.12132 
C -1.55874 2.683901 -0.795609 3 0 3 
z
" style="stroke: #9467bd"/>
    </defs>
    <g clip-path="url(#p04ff8b33ea)">
     <use xlink:href="#m29cad471fa" x="86.309614" y="412.720215" style="fill: #9467bd; stroke: #9467bd"/>
     <use xlink:href="#m29cad471fa" x="133.191341" y="411.758482" style="fill: #9467bd; stroke: #9467bd"/>
     <use xlink:href="#m29cad471fa" x="226.954795" y="404.509095" style="fill: #9467bd; stroke: #9467bd"/>
     <use xlink:href="#m29cad471fa" x="320.71825" y="381.80978" style="fill: #9467bd; stroke: #9467bd"/>
     <use xlink:href="#m29cad471fa" x="414.481705" y="356.642699" style="fill: #9467bd; stroke: #9467bd"/>
     <use xlink:href="#m29cad471fa" x="555.126886" y="326.719935" style="fill: #9467bd; stroke: #9467bd"/>
    </g>
   </g>
   <g id="line2d_32">
    <path d="M 86.309614 412.720215 
L 133.191341 404.970279 
L 226.954795 381.479779 
L 320.71825 342.425218 
L 414.481705 315.449586 
L 555.126886 302.429426 
" clip-path="url(#p04ff8b33ea)" style="fill: none; stroke: #8c564b; stroke-width: 2; stroke-linecap: square"/>
    <defs>
     <path id="m43e1f54b92" d="M 0 3 
C 0.795609 3 1.55874 2.683901 2.12132 2.12132 
C 2.683901 1.55874 3 0.795609 3 0 
C 3 -0.795609 2.683901 -1.55874 2.12132 -2.12132 
C 1.55874 -2.683901 0.795609 -3 0 -3 
C -0.795609 -3 -1.55874 -2.683901 -2.12132 -2.12132 
C -2.683901 -1.55874 -3 -0.795609 -3 0 
C -3 0.795609 -2.683901 1.55874 -2.12132 2.12132 
C -1.55874 2.683901 -0.795609 3 0 3 
z
" style="stroke: #8c564b"/>
    </defs>
    <g clip-path="url(#p04ff8b33ea)">
     <use xlink:href="#m43e1f54b92" x="86.309614" y="412.720215" style="fill: #8c564b; stroke: #8c564b"/>
     <use xlink:href="#m43e1f54b92" x="133.191341" y="404.970279" style="fill: #8c564b; stroke: #8c564b"/>
     <use xlink:href="#m43e1f54b92" x="226.954795" y="381.479779" style="fill: #8c564b; stroke: #8c564b"/>
     <use xlink:href="#m43e1f54b92" x="320.71825" y="342.425218" style="fill: #8c564b; stroke: #8c564b"/>
     <use xlink:href="#m43e1f54b92" x="414.481705" y="315.449586" style="fill: #8c564b; stroke: #8c564b"/>
     <use xlink:href="#m43e1f54b92" x="555.126886" y="302.429426" style="fill: #8c564b; stroke: #8c564b"/>
    </g>
   </g>
   <g id="patch_3">
    <path d="M 62.86875 421.118125 
L 62.86875 22.318125 
" style="fill: none; stroke: #000000; stroke-width: 0.8; stroke-linejoin: miter; stroke-linecap: square"/>
   </g>
   <g id="patch_4">
    <path d="M 578.56775 421.118125 
L 578.56775 22.318125 
" style="fill: none; stroke: #000000; stroke-width: 0.8; stroke-linejoin: miter; stroke-linecap: square"/>
   </g>
   <g id="patch_5">
    <path d="M 62.86875 421.118125 
L 578.56775 421.118125 
" style="fill: none; stroke: #000000; stroke-width: 0.8; stroke-linejoin: miter; stroke-linecap: square"/>
   </g>
   <g id="patch_6">
    <path d="M 62.86875 22.318125 
L 578.56775 22.318125 
" style="fill: none; stroke: #000000; stroke-width: 0.8; stroke-linejoin: miter; stroke-linecap: square"/>
   </g>
   <g id="text_16">
    <!-- Raw vs ZNE Accuracy Variance Across Noise Levels -->
    <g transform="translate(167.209188 16.318125) scale(0.12 -0.12)">
     <defs>
      <path id="DejaVuSans-52" d="M 2841 2188 
Q 3044 2119 3236 1894 
Q 3428 1669 3622 1275 
L 4263 0 
L 3584 0 
L 2988 1197 
Q 2756 1666 2539 1819 
Q 2322 1972 1947 1972 
L 1259 1972 
L 1259 0 
L 628 0 
L 628 4666 
L 2053 4666 
Q 2853 4666 3247 4331 
Q 3641 3997 3641 3322 
Q 3641 2881 3436 2590 
Q 3231 2300 2841 2188 
z
M 1259 4147 
L 1259 2491 
L 2053 2491 
Q 2509 2491 2742 2702 
Q 2975 2913 2975 3322 
Q 2975 3731 2742 3939 
Q 2509 4147 2053 4147 
L 1259 4147 
z
" transform="scale(0.015625)"/>
      <path id="DejaVuSans-77" d="M 269 3500 
L 844 3500 
L 1563 769 
L 2278 3500 
L 2956 3500 
L 3675 769 
L 4391 3500 
L 4966 3500 
L 4050 0 
L 3372 0 
L 2619 2869 
L 1863 0 
L 1184 0 
L 269 3500 
z
" transform="scale(0.015625)"/>
      <path id="DejaVuSans-5a" d="M 359 4666 
L 4025 4666 
L 4025 4184 
L 1075 531 
L 4097 531 
L 4097 0 
L 288 0 
L 288 481 
L 3238 4134 
L 359 4134 
L 359 4666 
z
" transform="scale(0.015625)"/>
      <path id="DejaVuSans-45" d="M 628 4666 
L 3578 4666 
L 3578 4134 
L 1259 4134 
L 1259 2753 
L 3481 2753 
L 3481 2222 
L 1259 2222 
L 1259 531 
L 3634 531 
L 3634 0 
L 628 0 
L 628 4666 
z
" transform="scale(0.015625)"/>
     </defs>
     <use xlink:href="#DejaVuSans-52"/>
     <use xlink:href="#DejaVuSans-61" transform="translate(67.232422 0)"/>
     <use xlink:href="#DejaVuSans-77" transform="translate(128.511719 0)"/>
     <use xlink:href="#DejaVuSans-20" transform="translate(210.298828 0)"/>
     <use xlink:href="#DejaVuSans-76" transform="translate(242.085938 0)"/>
     <use xlink:href="#DejaVuSans-73" transform="translate(301.265625 0)"/>
     <use xlink:href="#DejaVuSans-20" transform="translate(353.365234 0)"/>
     <use xlink:href="#DejaVuSans-5a" transform="translate(385.152344 0)"/>
     <use xlink:href="#DejaVuSans-4e" transform="translate(453.658203 0)"/>
     <use xlink:href="#DejaVuSans-45" transform="translate(528.462891 0)"/>
     <use xlink:href="#DejaVuSans-20" transform="translate(591.646484 0)"/>
     <use xlink:href="#DejaVuSans-41" transform="translate(623.433594 0)"/>
     <use xlink:href="#DejaVuSans-63" transform="translate(690.091797 0)"/>
     <use xlink:href="#DejaVuSans-63" transform="translate(745.072266 0)"/>
     <use xlink:href="#DejaVuSans-75" transform="translate(800.052734 0)"/>
     <use xlink:href="#DejaVuSans-72" transform="translate(863.431641 0)"/>
     <use xlink:href="#DejaVuSans-61" transform="translate(904.544922 0)"/>
     <use xlink:href="#DejaVuSans-63" transform="translate(965.824219 0)"/>
     <use xlink:href="#DejaVuSans-79" transform="translate(1020.804688 0)"/>
     <use xlink:href="#DejaVuSans-20" transform="translate(1079.984375 0)"/>
     <use xlink:href="#DejaVuSans-56" transform="translate(1111.771484 0)"/>
     <use xlink:href="#DejaVuSans-61" transform="translate(1172.429688 0)"/>
     <use xlink:href="#DejaVuSans-72" transform="translate(1233.708984 0)"/>
     <use xlink:href="#DejaVuSans-69" transform="translate(1274.822266 0)"/>
     <use xlink:href="#DejaVuSans-61" transform="translate(1302.605469 0)"/>
     <use xlink:href="#DejaVuSans-6e" transform="translate(1363.884766 0)"/>
     <use xlink:href="#DejaVuSans-63" transform="translate(1427.263672 0)"/>
     <use xlink:href="#DejaVuSans-65" transform="translate(1482.244141 0)"/>
     <use xlink:href="#DejaVuSans-20" transform="translate(1543.767578 0)"/>
     <use xlink:href="#DejaVuSans-41" transform="translate(1575.554688 0)"/>
     <use xlink:href="#DejaVuSans-63" transform="translate(1642.212891 0)"/>
     <use xlink:href="#DejaVuSans-72" transform="translate(1697.193359 0)"/>
     <use xlink:href="#DejaVuSans-6f" transform="translate(1736.056641 0)"/>
     <use xlink:href="#DejaVuSans-73" transform="translate(1797.238281 0)"/>
     <use xlink:href="#DejaVuSans-73" transform="translate(1849.337891 0)"/>
     <use xlink:href="#DejaVuSans-20" transform="translate(1901.4375 0)"/>
     <use xlink:href="#DejaVuSans-4e" transform="translate(1933.224609 0)"/>
     <use xlink:href="#DejaVuSans-6f" transform="translate(2008.029297 0)"/>
     <use xlink:href="#DejaVuSans-69" transform="translate(2069.210938 0)"/>
     <use xlink:href="#DejaVuSans-73" transform="translate(2096.994141 0)"/>
     <use xlink:href="#DejaVuSans-65" transform="translate(2149.09375 0)"/>
     <use xlink:href="#DejaVuSans-20" transform="translate(2210.617188 0)"/>
     <use xlink:href="#DejaVuSans-4c" transform="translate(2242.404297 0)"/>
     <use xlink:href="#DejaVuSans-65" transform="translate(2296.367188 0)"/>
     <use xlink:href="#DejaVuSans-76" transform="translate(2357.890625 0)"/>
     <use xlink:href="#DejaVuSans-65" transform="translate(2417.070312 0)"/>
     <use xlink:href="#DejaVuSans-6c" transform="translate(2478.59375 0)"/>
     <use xlink:href="#DejaVuSans-73" transform="translate(2506.376953 0)"/>
    </g>
   </g>
   <g id="legend_1">
    <g id="patch_7">
     <path d="M 595.88173 267.2525 
L 773.284855 267.2525 
Q 775.284855 267.2525 775.284855 265.2525 
L 775.284855 178.18375 
Q 775.284855 176.18375 773.284855 176.18375 
L 595.88173 176.18375 
Q 593.88173 176.18375 593.88173 178.18375 
L 593.88173 265.2525 
Q 593.88173 267.2525 595.88173 267.2525 
z
" style="fill: #ffffff; opacity: 0.8; stroke: #cccccc; stroke-linejoin: miter"/>
    </g>
    <g id="line2d_33">
     <path d="M 597.88173 184.282187 
L 607.88173 184.282187 
L 617.88173 184.282187 
" style="fill: none; stroke-dasharray: 7.4,3.2; stroke-dashoffset: 0; stroke: #1f77b4; stroke-width: 2"/>
     <g>
      <use xlink:href="#mda64885316" x="607.88173" y="184.282187" style="fill: #1f77b4; stroke: #1f77b4"/>
     </g>
    </g>
    <g id="text_17">
     <!-- Raw variance — 100 shots -->
     <g transform="translate(625.88173 187.782187) scale(0.1 -0.1)">
      <defs>
       <path id="DejaVuSans-2014" d="M 313 1978 
L 6088 1978 
L 6088 1528 
L 313 1528 
L 313 1978 
z
" transform="scale(0.015625)"/>
       <path id="DejaVuSans-68" d="M 3513 2113 
L 3513 0 
L 2938 0 
L 2938 2094 
Q 2938 2591 2744 2837 
Q 2550 3084 2163 3084 
Q 1697 3084 1428 2787 
Q 1159 2491 1159 1978 
L 1159 0 
L 581 0 
L 581 4863 
L 1159 4863 
L 1159 2956 
Q 1366 3272 1645 3428 
Q 1925 3584 2291 3584 
Q 2894 3584 3203 3211 
Q 3513 2838 3513 2113 
z
" transform="scale(0.015625)"/>
       <path id="DejaVuSans-74" d="M 1172 4494 
L 1172 3500 
L 2356 3500 
L 2356 3053 
L 1172 3053 
L 1172 1153 
Q 1172 725 1289 603 
Q 1406 481 1766 481 
L 2356 481 
L 2356 0 
L 1766 0 
Q 1100 0 847 248 
Q 594 497 594 1153 
L 594 3053 
L 172 3053 
L 172 3500 
L 594 3500 
L 594 4494 
L 1172 4494 
z
" transform="scale(0.015625)"/>
      </defs>
      <use xlink:href="#DejaVuSans-52"/>
      <use xlink:href="#DejaVuSans-61" transform="translate(67.232422 0)"/>
      <use xlink:href="#DejaVuSans-77" transform="translate(128.511719 0)"/>
      <use xlink:href="#DejaVuSans-20" transform="translate(210.298828 0)"/>
      <use xlink:href="#DejaVuSans-76" transform="translate(242.085938 0)"/>
      <use xlink:href="#DejaVuSans-61" transform="translate(301.265625 0)"/>
      <use xlink:href="#DejaVuSans-72" transform="translate(362.544922 0)"/>
      <use xlink:href="#DejaVuSans-69" transform="translate(403.658203 0)"/>
      <use xlink:href="#DejaVuSans-61" transform="translate(431.441406 0)"/>
      <use xlink:href="#DejaVuSans-6e" transform="translate(492.720703 0)"/>
      <use xlink:href="#DejaVuSans-63" transform="translate(556.099609 0)"/>
      <use xlink:href="#DejaVuSans-65" transform="translate(611.080078 0)"/>
      <use xlink:href="#DejaVuSans-20" transform="translate(672.603516 0)"/>
      <use xlink:href="#DejaVuSans-2014" transform="translate(704.390625 0)"/>
      <use xlink:href="#DejaVuSans-20" transform="translate(804.390625 0)"/>
      <use xlink:href="#DejaVuSans-31" transform="translate(836.177734 0)"/>
      <use xlink:href="#DejaVuSans-30" transform="translate(899.800781 0)"/>
      <use xlink:href="#DejaVuSans-30" transform="translate(963.423828 0)"/>
      <use xlink:href="#DejaVuSans-20" transform="translate(1027.046875 0)"/>
      <use xlink:href="#DejaVuSans-73" transform="translate(1058.833984 0)"/>
      <use xlink:href="#DejaVuSans-68" transform="translate(1110.933594 0)"/>
      <use xlink:href="#DejaVuSans-6f" transform="translate(1174.3125 0)"/>
      <use xlink:href="#DejaVuSans-74" transform="translate(1235.494141 0)"/>
      <use xlink:href="#DejaVuSans-73" transform="translate(1274.703125 0)"/>
     </g>
    </g>
    <g id="line2d_34">
     <path d="M 597.88173 198.960312 
L 607.88173 198.960312 
L 617.88173 198.960312 
" style="fill: none; stroke: #ff7f0e; stroke-width: 2; stroke-linecap: square"/>
     <g>
      <use xlink:href="#m44333bcab4" x="607.88173" y="198.960312" style="fill: #ff7f0e; stroke: #ff7f0e"/>
     </g>
    </g>
    <g id="text_18">
     <!-- ZNE variance — 100 shots -->
     <g transform="translate(625.88173 202.460312) scale(0.1 -0.1)">
      <use xlink:href="#DejaVuSans-5a"/>
      <use xlink:href="#DejaVuSans-4e" transform="translate(68.505859 0)"/>
      <use xlink:href="#DejaVuSans-45" transform="translate(143.310547 0)"/>
      <use xlink:href="#DejaVuSans-20" transform="translate(206.494141 0)"/>
      <use xlink:href="#DejaVuSans-76" transform="translate(238.28125 0)"/>
      <use xlink:href="#DejaVuSans-61" transform="translate(297.460938 0)"/>
      <use xlink:href="#DejaVuSans-72" transform="translate(358.740234 0)"/>
      <use xlink:href="#DejaVuSans-69" transform="translate(399.853516 0)"/>
      <use xlink:href="#DejaVuSans-61" transform="translate(427.636719 0)"/>
      <use xlink:href="#DejaVuSans-6e" transform="translate(488.916016 0)"/>
      <use xlink:href="#DejaVuSans-63" transform="translate(552.294922 0)"/>
      <use xlink:href="#DejaVuSans-65" transform="translate(607.275391 0)"/>
      <use xlink:href="#DejaVuSans-20" transform="translate(668.798828 0)"/>
      <use xlink:href="#DejaVuSans-2014" transform="translate(700.585938 0)"/>
      <use xlink:href="#DejaVuSans-20" transform="translate(800.585938 0)"/>
      <use xlink:href="#DejaVuSans-31" transform="translate(832.373047 0)"/>
      <use xlink:href="#DejaVuSans-30" transform="translate(895.996094 0)"/>
      <use xlink:href="#DejaVuSans-30" transform="translate(959.619141 0)"/>
      <use xlink:href="#DejaVuSans-20" transform="translate(1023.242188 0)"/>
      <use xlink:href="#DejaVuSans-73" transform="translate(1055.029297 0)"/>
      <use xlink:href="#DejaVuSans-68" transform="translate(1107.128906 0)"/>
      <use xlink:href="#DejaVuSans-6f" transform="translate(1170.507812 0)"/>
      <use xlink:href="#DejaVuSans-74" transform="translate(1231.689453 0)"/>
      <use xlink:href="#DejaVuSans-73" transform="translate(1270.898438 0)"/>
     </g>
    </g>
    <g id="line2d_35">
     <path d="M 597.88173 213.638437 
L 607.88173 213.638437 
L 617.88173 213.638437 
" style="fill: none; stroke-dasharray: 7.4,3.2; stroke-dashoffset: 0; stroke: #2ca02c; stroke-width: 2"/>
     <g>
      <use xlink:href="#m0a746aa75e" x="607.88173" y="213.638437" style="fill: #2ca02c; stroke: #2ca02c"/>
     </g>
    </g>
    <g id="text_19">
     <!-- Raw variance — 1000 shots -->
     <g transform="translate(625.88173 217.138437) scale(0.1 -0.1)">
      <use xlink:href="#DejaVuSans-52"/>
      <use xlink:href="#DejaVuSans-61" transform="translate(67.232422 0)"/>
      <use xlink:href="#DejaVuSans-77" transform="translate(128.511719 0)"/>
      <use xlink:href="#DejaVuSans-20" transform="translate(210.298828 0)"/>
      <use xlink:href="#DejaVuSans-76" transform="translate(242.085938 0)"/>
      <use xlink:href="#DejaVuSans-61" transform="translate(301.265625 0)"/>
      <use xlink:href="#DejaVuSans-72" transform="translate(362.544922 0)"/>
      <use xlink:href="#DejaVuSans-69" transform="translate(403.658203 0)"/>
      <use xlink:href="#DejaVuSans-61" transform="translate(431.441406 0)"/>
      <use xlink:href="#DejaVuSans-6e" transform="translate(492.720703 0)"/>
      <use xlink:href="#DejaVuSans-63" transform="translate(556.099609 0)"/>
      <use xlink:href="#DejaVuSans-65" transform="translate(611.080078 0)"/>
      <use xlink:href="#DejaVuSans-20" transform="translate(672.603516 0)"/>
      <use xlink:href="#DejaVuSans-2014" transform="translate(704.390625 0)"/>
      <use xlink:href="#DejaVuSans-20" transform="translate(804.390625 0)"/>
      <use xlink:href="#DejaVuSans-31" transform="translate(836.177734 0)"/>
      <use xlink:href="#DejaVuSans-30" transform="translate(899.800781 0)"/>
      <use xlink:href="#DejaVuSans-30" transform="translate(963.423828 0)"/>
      <use xlink:href="#DejaVuSans-30" transform="translate(1027.046875 0)"/>
      <use xlink:href="#DejaVuSans-20" transform="translate(1090.669922 0)"/>
      <use xlink:href="#DejaVuSans-73" transform="translate(1122.457031 0)"/>
      <use xlink:href="#DejaVuSans-68" transform="translate(1174.556641 0)"/>
      <use xlink:href="#DejaVuSans-6f" transform="translate(1237.935547 0)"/>
      <use xlink:href="#DejaVuSans-74" transform="translate(1299.117188 0)"/>
      <use xlink:href="#DejaVuSans-73" transform="translate(1338.326172 0)"/>
     </g>
    </g>
    <g id="line2d_36">
     <path d="M 597.88173 228.316562 
L 607.88173 228.316562 
L 617.88173 228.316562 
" style="fill: none; stroke: #d62728; stroke-width: 2; stroke-linecap: square"/>
     <g>
      <use xlink:href="#m5c3106b741" x="607.88173" y="228.316562" style="fill: #d62728; stroke: #d62728"/>
     </g>
    </g>
    <g id="text_20">
     <!-- ZNE variance — 1000 shots -->
     <g transform="translate(625.88173 231.816562) scale(0.1 -0.1)">
      <use xlink:href="#DejaVuSans-5a"/>
      <use xlink:href="#DejaVuSans-4e" transform="translate(68.505859 0)"/>
      <use xlink:href="#DejaVuSans-45" transform="translate(143.310547 0)"/>
      <use xlink:href="#DejaVuSans-20" transform="translate(206.494141 0)"/>
      <use xlink:href="#DejaVuSans-76" transform="translate(238.28125 0)"/>
      <use xlink:href="#DejaVuSans-61" transform="translate(297.460938 0)"/>
      <use xlink:href="#DejaVuSans-72" transform="translate(358.740234 0)"/>
      <use xlink:href="#DejaVuSans-69" transform="translate(399.853516 0)"/>
      <use xlink:href="#DejaVuSans-61" transform="translate(427.636719 0)"/>
      <use xlink:href="#DejaVuSans-6e" transform="translate(488.916016 0)"/>
      <use xlink:href="#DejaVuSans-63" transform="translate(552.294922 0)"/>
      <use xlink:href="#DejaVuSans-65" transform="translate(607.275391 0)"/>
      <use xlink:href="#DejaVuSans-20" transform="translate(668.798828 0)"/>
      <use xlink:href="#DejaVuSans-2014" transform="translate(700.585938 0)"/>
      <use xlink:href="#DejaVuSans-20" transform="translate(800.585938 0)"/>
      <use xlink:href="#DejaVuSans-31" transform="translate(832.373047 0)"/>
      <use xlink:href="#DejaVuSans-30" transform="translate(895.996094 0)"/>
      <use xlink:href="#DejaVuSans-30" transform="translate(959.619141 0)"/>
      <use xlink:href="#DejaVuSans-30" transform="translate(1023.242188 0)"/>
      <use xlink:href="#DejaVuSans-20" transform="translate(1086.865234 0)"/>
      <use xlink:href="#DejaVuSans-73" transform="translate(1118.652344 0)"/>
      <use xlink:href="#DejaVuSans-68" transform="translate(1170.751953 0)"/>
      <use xlink:href="#DejaVuSans-6f" transform="translate(1234.130859 0)"/>
      <use xlink:href="#DejaVuSans-74" transform="translate(1295.3125 0)"/>
      <use xlink:href="#DejaVuSans-73" transform="translate(1334.521484 0)"/>
     </g>
    </g>
    <g id="line2d_37">
     <path d="M 597.88173 242.994687 
L 607.88173 242.994687 
L 617.88173 242.994687 
" style="fill: none; stroke-dasharray: 7.4,3.2; stroke-dashoffset: 0; stroke: #9467bd; stroke-width: 2"/>
     <g>
      <use xlink:href="#m29cad471fa" x="607.88173" y="242.994687" style="fill: #9467bd; stroke: #9467bd"/>
     </g>
    </g>
    <g id="text_21">
     <!-- Raw variance — 10000 shots -->
     <g transform="translate(625.88173 246.494687) scale(0.1 -0.1)">
      <use xlink:href="#DejaVuSans-52"/>
      <use xlink:href="#DejaVuSans-61" transform="translate(67.232422 0)"/>
      <use xlink:href="#DejaVuSans-77" transform="translate(128.511719 0)"/>
      <use xlink:href="#DejaVuSans-20" transform="translate(210.298828 0)"/>
      <use xlink:href="#DejaVuSans-76" transform="translate(242.085938 0)"/>
      <use xlink:href="#DejaVuSans-61" transform="translate(301.265625 0)"/>
      <use xlink:href="#DejaVuSans-72" transform="translate(362.544922 0)"/>
      <use xlink:href="#DejaVuSans-69" transform="translate(403.658203 0)"/>
      <use xlink:href="#DejaVuSans-61" transform="translate(431.441406 0)"/>
      <use xlink:href="#DejaVuSans-6e" transform="translate(492.720703 0)"/>
      <use xlink:href="#DejaVuSans-63" transform="translate(556.099609 0)"/>
      <use xlink:href="#DejaVuSans-65" transform="translate(611.080078 0)"/>
      <use xlink:href="#DejaVuSans-20" transform="translate(672.603516 0)"/>
      <use xlink:href="#DejaVuSans-2014" transform="translate(704.390625 0)"/>
      <use xlink:href="#DejaVuSans-20" transform="translate(804.390625 0)"/>
      <use xlink:href="#DejaVuSans-31" transform="translate(836.177734 0)"/>
      <use xlink:href="#DejaVuSans-30" transform="translate(899.800781 0)"/>
      <use xlink:href="#DejaVuSans-30" transform="translate(963.423828 0)"/>
      <use xlink:href="#DejaVuSans-30" transform="translate(1027.046875 0)"/>
      <use xlink:href="#DejaVuSans-30" transform="translate(1090.669922 0)"/>
      <use xlink:href="#DejaVuSans-20" transform="translate(1154.292969 0)"/>
      <use xlink:href="#DejaVuSans-73" transform="translate(1186.080078 0)"/>
      <use xlink:href="#DejaVuSans-68" transform="translate(1238.179688 0)"/>
      <use xlink:href="#DejaVuSans-6f" transform="translate(1301.558594 0)"/>
      <use xlink:href="#DejaVuSans-74" transform="translate(1362.740234 0)"/>
      <use xlink:href="#DejaVuSans-73" transform="translate(1401.949219 0)"/>
     </g>
    </g>
    <g id="line2d_38">
     <path d="M 597.88173 257.672812 
L 607.88173 257.672812 
L 617.88173 257.672812 
" style="fill: none; stroke: #8c564b; stroke-width: 2; stroke-linecap: square"/>
     <g>
      <use xlink:href="#m43e1f54b92" x="607.88173" y="257.672812" style="fill: #8c564b; stroke: #8c564b"/>
     </g>
    </g>
    <g id="text_22">
     <!-- ZNE variance — 10000 shots -->
     <g transform="translate(625.88173 261.172812) scale(0.1 -0.1)">
      <use xlink:href="#DejaVuSans-5a"/>
      <use xlink:href="#DejaVuSans-4e" transform="translate(68.505859 0)"/>
      <use xlink:href="#DejaVuSans-45" transform="translate(143.310547 0)"/>
      <use xlink:href="#DejaVuSans-20" transform="translate(206.494141 0)"/>
      <use xlink:href="#DejaVuSans-76" transform="translate(238.28125 0)"/>
      <use xlink:href="#DejaVuSans-61" transform="translate(297.460938 0)"/>
      <use xlink:href="#DejaVuSans-72" transform="translate(358.740234 0)"/>
      <use xlink:href="#DejaVuSans-69" transform="translate(399.853516 0)"/>
      <use xlink:href="#DejaVuSans-61" transform="translate(427.636719 0)"/>
      <use xlink:href="#DejaVuSans-6e" transform="translate(488.916016 0)"/>
      <use xlink:href="#DejaVuSans-63" transform="translate(552.294922 0)"/>
      <use xlink:href="#DejaVuSans-65" transform="translate(607.275391 0)"/>
      <use xlink:href="#DejaVuSans-20" transform="translate(668.798828 0)"/>
      <use xlink:href="#DejaVuSans-2014" transform="translate(700.585938 0)"/>
      <use xlink:href="#DejaVuSans-20" transform="translate(800.585938 0)"/>
      <use xlink:href="#DejaVuSans-31" transform="translate(832.373047 0)"/>
      <use xlink:href="#DejaVuSans-30" transform="translate(895.996094 0)"/>
      <use xlink:href="#DejaVuSans-30" transform="translate(959.619141 0)"/>
      <use xlink:href="#DejaVuSans-30" transform="translate(1023.242188 0)"/>
      <use xlink:href="#DejaVuSans-30" transform="translate(1086.865234 0)"/>
      <use xlink:href="#DejaVuSans-20" transform="translate(1150.488281 0)"/>
      <use xlink:href="#DejaVuSans-73" transform="translate(1182.275391 0)"/>
      <use xlink:href="#DejaVuSans-68" transform="translate(1234.375 0)"/>
      <use xlink:href="#DejaVuSans-6f" transform="translate(1297.753906 0)"/>
      <use xlink:href="#DejaVuSans-74" transform="translate(1358.935547 0)"/>
      <use xlink:href="#DejaVuSans-73" transform="translate(1398.144531 0)"/>
     </g>
    </g>
   </g>
  </g>
 </g>
 <defs>
  <clipPath id="p04ff8b33ea">
   <rect x="62.86875" y="22.318125" width="515.699" height="398.8"/>
  </clipPath>
 </defs>
</svg>
