<?xml version="1.0" encoding="utf-8" standalone="no"?>
<!DOCTYPE svg PUBLIC "-//W3C//DTD SVG 1.1//EN"
  "http://www.w3.org/Graphics/SVG/1.1/DTD/svg11.dtd">
<svg xmlns:xlink="http://www.w3.org/1999/xlink" width="646.271562pt" height="430.140312pt" viewBox="0 0 646.271562 430.140312" xmlns="http://www.w3.org/2000/svg" version="1.1">
 <metadata>
  <rdf:RDF xmlns:dc="http://purl.org/dc/elements/1.1/" xmlns:cc="http://creativecommons.org/ns#" xmlns:rdf="http://www.w3.org/1999/02/22-rdf-syntax-ns#">
   <cc:Work>
    <dc:type rdf:resource="http://purl.org/dc/dcmitype/StillImage"/>
    <dc:date>2026-05-26T23:25:06.848825</dc:date>
    <dc:format>image/svg+xml</dc:format>
    <dc:creator>
     <cc:Agent>
      <dc:title>Matplotlib v3.10.9, https://matplotlib.org/</dc:title>
     </cc:Agent>
    </dc:creator>
   </cc:Work>
  </rdf:RDF>
 </metadata>
 <defs>
  <style type="text/css">*{stroke-linejoin: round; stroke-linecap: butt}</style>
 </defs>
 <g id="figure_1">
  <g id="patch_1">
   <path d="M 0 430.140312 
L 646.271562 430.140312 
L 646.271562 0 
L 0 0 
z
" style="fill: #ffffff"/>
  </g>
  <g id="axes_1">
   <g id="patch_2">
    <path d="M 34.516562 399.35875 
L 639.071562 399.35875 
L 639.071562 19.27875 
L 34.516562 19.27875 
z
" style="fill: #ffffff"/>
   </g>
   <g id="matplotlib.axis_1">
    <g id="xtick_1">
     <g id="line2d_1">
      <path d="M 61.996335 399.35875 
L 61.996335 19.27875 
" clip-path="url(#p49ae292778)" style="fill: none; stroke: #b0b0b0; stroke-width: 0.8; stroke-linecap: square"/>
     </g>
     <g id="line2d_2">
      <defs>
       <path id="m0947fce834" d="M 0 0 
L 0 3.5 
" style="stroke: #000000; stroke-width: 0.8"/>
      </defs>
      <g>
       <use xlink:href="#m0947fce834" x="61.996335" y="399.35875" style="stroke: #000000; stroke-width: 0.8"/>
      </g>
     </g>
     <g id="text_1">
      <!-- 0.00 -->
      <g transform="translate(55.316648 410.917812) scale(0.06 -0.06)">
       <defs>
        <path id="DejaVuSans-30" d="M 2034 4250 
Q 1547 4250 1301 3770 
Q 1056 3291 1056 2328 
Q 1056 1369 1301 889 
Q 1547 409 2034 409 
Q 2525 409 2770 889 
Q 3016 1369 3016 2328 
Q 3016 3291 2770 3770 
Q 2525 4250 2034 4250 
z
M 2034 4750 
Q 2819 4750 3233 4129 
Q 3647 3509 3647 2328 
Q 3647 1150 3233 529 
Q 2819 -91 2034 -91 
Q 1250 -91 836 529 
Q 422 1150 422 2328 
Q 422 3509 836 4129 
Q 1250 4750 2034 4750 
z
" transform="scale(0.015625)"/>
        <path id="DejaVuSans-2e" d="M 684 794 
L 1344 794 
L 1344 0 
L 684 0 
L 684 794 
z
" transform="scale(0.015625)"/>
       </defs>
       <use xlink:href="#DejaVuSans-30"/>
       <use xlink:href="#DejaVuSans-2e" transform="translate(63.623047 0)"/>
       <use xlink:href="#DejaVuSans-30" transform="translate(95.410156 0)"/>
       <use xlink:href="#DejaVuSans-30" transform="translate(159.033203 0)"/>
      </g>
     </g>
    </g>
    <g id="xtick_2">
     <g id="line2d_3">
      <path d="M 171.915426 399.35875 
L 171.915426 19.27875 
" clip-path="url(#p49ae292778)" style="fill: none; stroke: #b0b0b0; stroke-width: 0.8; stroke-linecap: square"/>
     </g>
     <g id="line2d_4">
      <g>
       <use xlink:href="#m0947fce834" x="171.915426" y="399.35875" style="stroke: #000000; stroke-width: 0.8"/>
      </g>
     </g>
     <g id="text_2">
      <!-- 0.02 -->
      <g transform="translate(165.235739 410.917812) scale(0.06 -0.06)">
       <defs>
        <path id="DejaVuSans-32" d="M 1228 531 
L 3431 531 
L 3431 0 
L 469 0 
L 469 531 
Q 828 903 1448 1529 
Q 2069 2156 2228 2338 
Q 2531 2678 2651 2914 
Q 2772 3150 2772 3378 
Q 2772 3750 2511 3984 
Q 2250 4219 1831 4219 
Q 1534 4219 1204 4116 
Q 875 4013 500 3803 
L 500 4441 
Q 881 4594 1212 4672 
Q 1544 4750 1819 4750 
Q 2544 4750 2975 4387 
Q 3406 4025 3406 3419 
Q 3406 3131 3298 2873 
Q 3191 2616 2906 2266 
Q 2828 2175 2409 1742 
Q 1991 1309 1228 531 
z
" transform="scale(0.015625)"/>
       </defs>
       <use xlink:href="#DejaVuSans-30"/>
       <use xlink:href="#DejaVuSans-2e" transform="translate(63.623047 0)"/>
       <use xlink:href="#DejaVuSans-30" transform="translate(95.410156 0)"/>
       <use xlink:href="#DejaVuSans-32" transform="translate(159.033203 0)"/>
      </g>
     </g>
    </g>
    <g id="xtick_3">
     <g id="line2d_5">
      <path d="M 281.834517 399.35875 
L 281.834517 19.27875 
" clip-path="url(#p49ae292778)" style="fill: none; stroke: #b0b0b0; stroke-width: 0.8; stroke-linecap: square"/>
     </g>
     <g id="line2d_6">
      <g>
       <use xlink:href="#m0947fce834" x="281.834517" y="399.35875" style="stroke: #000000; stroke-width: 0.8"/>
      </g>
     </g>
     <g id="text_3">
      <!-- 0.04 -->
      <g transform="translate(275.15483 410.917812) scale(0.06 -0.06)">
       <defs>
        <path id="DejaVuSans-34" d="M 2419 4116 
L 825 1625 
L 2419 1625 
L 2419 4116 
z
M 2253 4666 
L 3047 4666 
L 3047 1625 
L 3713 1625 
L 3713 1100 
L 3047 1100 
L 3047 0 
L 2419 0 
L 2419 1100 
L 313 1100 
L 313 1709 
L 2253 4666 
z
" transform="scale(0.015625)"/>
       </defs>
       <use xlink:href="#DejaVuSans-30"/>
       <use xlink:href="#DejaVuSans-2e" transform="translate(63.623047 0)"/>
       <use xlink:href="#DejaVuSans-30" transform="translate(95.410156 0)"/>
       <use xlink:href="#DejaVuSans-34" transform="translate(159.033203 0)"/>
      </g>
     </g>
    </g>
    <g id="xtick_4">
     <g id="line2d_7">
      <path d="M 391.753608 399.35875 
L 391.753608 19.27875 
" clip-path="url(#p49ae292778)" style="fill: none; stroke: #b0b0b0; stroke-width: 0.8; stroke-linecap: square"/>
     </g>
     <g id="line2d_8">
      <g>
       <use xlink:href="#m0947fce834" x="391.753608" y="399.35875" style="stroke: #000000; stroke-width: 0.8"/>
      </g>
     </g>
     <g id="text_4">
      <!-- 0.06 -->
      <g transform="translate(385.07392 410.917812) scale(0.06 -0.06)">
       <defs>
        <path id="DejaVuSans-36" d="M 2113 2584 
Q 1688 2584 1439 2293 
Q 1191 2003 1191 1497 
Q 1191 994 1439 701 
Q 1688 409 2113 409 
Q 2538 409 2786 701 
Q 3034 994 3034 1497 
Q 3034 2003 2786 2293 
Q 2538 2584 2113 2584 
z
M 3366 4563 
L 3366 3988 
Q 3128 4100 2886 4159 
Q 2644 4219 2406 4219 
Q 1781 4219 1451 3797 
Q 1122 3375 1075 2522 
Q 1259 2794 1537 2939 
Q 1816 3084 2150 3084 
Q 2853 3084 3261 2657 
Q 3669 2231 3669 1497 
Q 3669 778 3244 343 
Q 2819 -91 2113 -91 
Q 1303 -91 875 529 
Q 447 1150 447 2328 
Q 447 3434 972 4092 
Q 1497 4750 2381 4750 
Q 2619 4750 2861 4703 
Q 3103 4656 3366 4563 
z
" transform="scale(0.015625)"/>
       </defs>
       <use xlink:href="#DejaVuSans-30"/>
       <use xlink:href="#DejaVuSans-2e" transform="translate(63.623047 0)"/>
       <use xlink:href="#DejaVuSans-30" transform="translate(95.410156 0)"/>
       <use xlink:href="#DejaVuSans-36" transform="translate(159.033203 0)"/>
      </g>
     </g>
    </g>
    <g id="xtick_5">
     <g id="line2d_9">
      <path d="M 501.672699 399.35875 
L 501.672699 19.27875 
" clip-path="url(#p49ae292778)" style="fill: none; stroke: #b0b0b0; stroke-width: 0.8; stroke-linecap: square"/>
     </g>
     <g id="line2d_10">
      <g>
       <use xlink:href="#m0947fce834" x="501.672699" y="399.35875" style="stroke: #000000; stroke-width: 0.8"/>
      </g>
     </g>
     <g id="text_5">
      <!-- 0.08 -->
      <g transform="translate(494.993011 410.917812) scale(0.06 -0.06)">
       <defs>
        <path id="DejaVuSans-38" d="M 2034 2216 
Q 1584 2216 1326 1975 
Q 1069 1734 1069 1313 
Q 1069 891 1326 650 
Q 1584 409 2034 409 
Q 2484 409 2743 651 
Q 3003 894 3003 1313 
Q 3003 1734 2745 1975 
Q 2488 2216 2034 2216 
z
M 1403 2484 
Q 997 2584 770 2862 
Q 544 3141 544 3541 
Q 544 4100 942 4425 
Q 1341 4750 2034 4750 
Q 2731 4750 3128 4425 
Q 3525 4100 3525 3541 
Q 3525 3141 3298 2862 
Q 3072 2584 2669 2484 
Q 3125 2378 3379 2068 
Q 3634 1759 3634 1313 
Q 3634 634 3220 271 
Q 2806 -91 2034 -91 
Q 1263 -91 848 271 
Q 434 634 434 1313 
Q 434 1759 690 2068 
Q 947 2378 1403 2484 
z
M 1172 3481 
Q 1172 3119 1398 2916 
Q 1625 2713 2034 2713 
Q 2441 2713 2670 2916 
Q 2900 3119 2900 3481 
Q 2900 3844 2670 4047 
Q 2441 4250 2034 4250 
Q 1625 4250 1398 4047 
Q 1172 3844 1172 3481 
z
" transform="scale(0.015625)"/>
       </defs>
       <use xlink:href="#DejaVuSans-30"/>
       <use xlink:href="#DejaVuSans-2e" transform="translate(63.623047 0)"/>
       <use xlink:href="#DejaVuSans-30" transform="translate(95.410156 0)"/>
       <use xlink:href="#DejaVuSans-38" transform="translate(159.033203 0)"/>
      </g>
     </g>
    </g>
    <g id="xtick_6">
     <g id="line2d_11">
      <path d="M 611.59179 399.35875 
L 611.59179 19.27875 
" clip-path="url(#p49ae292778)" style="fill: none; stroke: #b0b0b0; stroke-width: 0.8; stroke-linecap: square"/>
     </g>
     <g id="line2d_12">
      <g>
       <use xlink:href="#m0947fce834" x="611.59179" y="399.35875" style="stroke: #000000; stroke-width: 0.8"/>
      </g>
     </g>
     <g id="text_6">
      <!-- 0.10 -->
      <g transform="translate(604.912102 410.917812) scale(0.06 -0.06)">
       <defs>
        <path id="DejaVuSans-31" d="M 794 531 
L 1825 531 
L 1825 4091 
L 703 3866 
L 703 4441 
L 1819 4666 
L 2450 4666 
L 2450 531 
L 3481 531 
L 3481 0 
L 794 0 
L 794 531 
z
" transform="scale(0.015625)"/>
       </defs>
       <use xlink:href="#DejaVuSans-30"/>
       <use xlink:href="#DejaVuSans-2e" transform="translate(63.623047 0)"/>
       <use xlink:href="#DejaVuSans-31" transform="translate(95.410156 0)"/>
       <use xlink:href="#DejaVuSans-30" transform="translate(159.033203 0)"/>
      </g>
     </g>
    </g>
    <g id="text_7">
     <!-- Depolarizing Noise Level -->
     <g transform="translate(293.630313 421.484531) scale(0.07 -0.07)">
      <defs>
       <path id="DejaVuSans-44" d="M 1259 4147 
L 1259 519 
L 2022 519 
Q 2988 519 3436 956 
Q 3884 1394 3884 2338 
Q 3884 3275 3436 3711 
Q 2988 4147 2022 4147 
L 1259 4147 
z
M 628 4666 
L 1925 4666 
Q 3281 4666 3915 4102 
Q 4550 3538 4550 2338 
Q 4550 1131 3912 565 
Q 3275 0 1925 0 
L 628 0 
L 628 4666 
z
" transform="scale(0.015625)"/>
       <path id="DejaVuSans-65" d="M 3597 1894 
L 3597 1613 
L 953 1613 
Q 991 1019 1311 708 
Q 1631 397 2203 397 
Q 2534 397 2845 478 
Q 3156 559 3463 722 
L 3463 178 
Q 3153 47 2828 -22 
Q 2503 -91 2169 -91 
Q 1331 -91 842 396 
Q 353 884 353 1716 
Q 353 2575 817 3079 
Q 1281 3584 2069 3584 
Q 2775 3584 3186 3129 
Q 3597 2675 3597 1894 
z
M 3022 2063 
Q 3016 2534 2758 2815 
Q 2500 3097 2075 3097 
Q 1594 3097 1305 2825 
Q 1016 2553 972 2059 
L 3022 2063 
z
" transform="scale(0.015625)"/>
       <path id="DejaVuSans-70" d="M 1159 525 
L 1159 -1331 
L 581 -1331 
L 581 3500 
L 1159 3500 
L 1159 2969 
Q 1341 3281 1617 3432 
Q 1894 3584 2278 3584 
Q 2916 3584 3314 3078 
Q 3713 2572 3713 1747 
Q 3713 922 3314 415 
Q 2916 -91 2278 -91 
Q 1894 -91 1617 61 
Q 1341 213 1159 525 
z
M 3116 1747 
Q 3116 2381 2855 2742 
Q 2594 3103 2138 3103 
Q 1681 3103 1420 2742 
Q 1159 2381 1159 1747 
Q 1159 1113 1420 752 
Q 1681 391 2138 391 
Q 2594 391 2855 752 
Q 3116 1113 3116 1747 
z
" transform="scale(0.015625)"/>
       <path id="DejaVuSans-6f" d="M 1959 3097 
Q 1497 3097 1228 2736 
Q 959 2375 959 1747 
Q 959 1119 1226 758 
Q 1494 397 1959 397 
Q 2419 397 2687 759 
Q 2956 1122 2956 1747 
Q 2956 2369 2687 2733 
Q 2419 3097 1959 3097 
z
M 1959 3584 
Q 2709 3584 3137 3096 
Q 3566 2609 3566 1747 
Q 3566 888 3137 398 
Q 2709 -91 1959 -91 
Q 1206 -91 779 398 
Q 353 888 353 1747 
Q 353 2609 779 3096 
Q 1206 3584 1959 3584 
z
" transform="scale(0.015625)"/>
       <path id="DejaVuSans-6c" d="M 603 4863 
L 1178 4863 
L 1178 0 
L 603 0 
L 603 4863 
z
" transform="scale(0.015625)"/>
       <path id="DejaVuSans-61" d="M 2194 1759 
Q 1497 1759 1228 1600 
Q 959 1441 959 1056 
Q 959 750 1161 570 
Q 1363 391 1709 391 
Q 2188 391 2477 730 
Q 2766 1069 2766 1631 
L 2766 1759 
L 2194 1759 
z
M 3341 1997 
L 3341 0 
L 2766 0 
L 2766 531 
Q 2569 213 2275 61 
Q 1981 -91 1556 -91 
Q 1019 -91 701 211 
Q 384 513 384 1019 
Q 384 1609 779 1909 
Q 1175 2209 1959 2209 
L 2766 2209 
L 2766 2266 
Q 2766 2663 2505 2880 
Q 2244 3097 1772 3097 
Q 1472 3097 1187 3025 
Q 903 2953 641 2809 
L 641 3341 
Q 956 3463 1253 3523 
Q 1550 3584 1831 3584 
Q 2591 3584 2966 3190 
Q 3341 2797 3341 1997 
z
" transform="scale(0.015625)"/>
       <path id="DejaVuSans-72" d="M 2631 2963 
Q 2534 3019 2420 3045 
Q 2306 3072 2169 3072 
Q 1681 3072 1420 2755 
Q 1159 2438 1159 1844 
L 1159 0 
L 581 0 
L 581 3500 
L 1159 3500 
L 1159 2956 
Q 1341 3275 1631 3429 
Q 1922 3584 2338 3584 
Q 2397 3584 2469 3576 
Q 2541 3569 2628 3553 
L 2631 2963 
z
" transform="scale(0.015625)"/>
       <path id="DejaVuSans-69" d="M 603 3500 
L 1178 3500 
L 1178 0 
L 603 0 
L 603 3500 
z
M 603 4863 
L 1178 4863 
L 1178 4134 
L 603 4134 
L 603 4863 
z
" transform="scale(0.015625)"/>
       <path id="DejaVuSans-7a" d="M 353 3500 
L 3084 3500 
L 3084 2975 
L 922 459 
L 3084 459 
L 3084 0 
L 275 0 
L 275 525 
L 2438 3041 
L 353 3041 
L 353 3500 
z
" transform="scale(0.015625)"/>
       <path id="DejaVuSans-6e" d="M 3513 2113 
L 3513 0 
L 2938 0 
L 2938 2094 
Q 2938 2591 2744 2837 
Q 2550 3084 2163 3084 
Q 1697 3084 1428 2787 
Q 1159 2491 1159 1978 
L 1159 0 
L 581 0 
L 581 3500 
L 1159 3500 
L 1159 2956 
Q 1366 3272 1645 3428 
Q 1925 3584 2291 3584 
Q 2894 3584 3203 3211 
Q 3513 2838 3513 2113 
z
" transform="scale(0.015625)"/>
       <path id="DejaVuSans-67" d="M 2906 1791 
Q 2906 2416 2648 2759 
Q 2391 3103 1925 3103 
Q 1463 3103 1205 2759 
Q 947 2416 947 1791 
Q 947 1169 1205 825 
Q 1463 481 1925 481 
Q 2391 481 2648 825 
Q 2906 1169 2906 1791 
z
M 3481 434 
Q 3481 -459 3084 -895 
Q 2688 -1331 1869 -1331 
Q 1566 -1331 1297 -1286 
Q 1028 -1241 775 -1147 
L 775 -588 
Q 1028 -725 1275 -790 
Q 1522 -856 1778 -856 
Q 2344 -856 2625 -561 
Q 2906 -266 2906 331 
L 2906 616 
Q 2728 306 2450 153 
Q 2172 0 1784 0 
Q 1141 0 747 490 
Q 353 981 353 1791 
Q 353 2603 747 3093 
Q 1141 3584 1784 3584 
Q 2172 3584 2450 3431 
Q 2728 3278 2906 2969 
L 2906 3500 
L 3481 3500 
L 3481 434 
z
" transform="scale(0.015625)"/>
       <path id="DejaVuSans-20" transform="scale(0.015625)"/>
       <path id="DejaVuSans-4e" d="M 628 4666 
L 1478 4666 
L 3547 763 
L 3547 4666 
L 4159 4666 
L 4159 0 
L 3309 0 
L 1241 3903 
L 1241 0 
L 628 0 
L 628 4666 
z
" transform="scale(0.015625)"/>
       <path id="DejaVuSans-73" d="M 2834 3397 
L 2834 2853 
Q 2591 2978 2328 3040 
Q 2066 3103 1784 3103 
Q 1356 3103 1142 2972 
Q 928 2841 928 2578 
Q 928 2378 1081 2264 
Q 1234 2150 1697 2047 
L 1894 2003 
Q 2506 1872 2764 1633 
Q 3022 1394 3022 966 
Q 3022 478 2636 193 
Q 2250 -91 1575 -91 
Q 1294 -91 989 -36 
Q 684 19 347 128 
L 347 722 
Q 666 556 975 473 
Q 1284 391 1588 391 
Q 1994 391 2212 530 
Q 2431 669 2431 922 
Q 2431 1156 2273 1281 
Q 2116 1406 1581 1522 
L 1381 1569 
Q 847 1681 609 1914 
Q 372 2147 372 2553 
Q 372 3047 722 3315 
Q 1072 3584 1716 3584 
Q 2034 3584 2315 3537 
Q 2597 3491 2834 3397 
z
" transform="scale(0.015625)"/>
       <path id="DejaVuSans-4c" d="M 628 4666 
L 1259 4666 
L 1259 531 
L 3531 531 
L 3531 0 
L 628 0 
L 628 4666 
z
" transform="scale(0.015625)"/>
       <path id="DejaVuSans-76" d="M 191 3500 
L 800 3500 
L 1894 563 
L 2988 3500 
L 3597 3500 
L 2284 0 
L 1503 0 
L 191 3500 
z
" transform="scale(0.015625)"/>
      </defs>
      <use xlink:href="#DejaVuSans-44"/>
      <use xlink:href="#DejaVuSans-65" transform="translate(77.001953 0)"/>
      <use xlink:href="#DejaVuSans-70" transform="translate(138.525391 0)"/>
      <use xlink:href="#DejaVuSans-6f" transform="translate(202.001953 0)"/>
      <use xlink:href="#DejaVuSans-6c" transform="translate(263.183594 0)"/>
      <use xlink:href="#DejaVuSans-61" transform="translate(290.966797 0)"/>
      <use xlink:href="#DejaVuSans-72" transform="translate(352.246094 0)"/>
      <use xlink:href="#DejaVuSans-69" transform="translate(393.359375 0)"/>
      <use xlink:href="#DejaVuSans-7a" transform="translate(421.142578 0)"/>
      <use xlink:href="#DejaVuSans-69" transform="translate(473.632812 0)"/>
      <use xlink:href="#DejaVuSans-6e" transform="translate(501.416016 0)"/>
      <use xlink:href="#DejaVuSans-67" transform="translate(564.794922 0)"/>
      <use xlink:href="#DejaVuSans-20" transform="translate(628.271484 0)"/>
      <use xlink:href="#DejaVuSans-4e" transform="translate(660.058594 0)"/>
      <use xlink:href="#DejaVuSans-6f" transform="translate(734.863281 0)"/>
      <use xlink:href="#DejaVuSans-69" transform="translate(796.044922 0)"/>
      <use xlink:href="#DejaVuSans-73" transform="translate(823.828125 0)"/>
      <use xlink:href="#DejaVuSans-65" transform="translate(875.927734 0)"/>
      <use xlink:href="#DejaVuSans-20" transform="translate(937.451172 0)"/>
      <use xlink:href="#DejaVuSans-4c" transform="translate(969.238281 0)"/>
      <use xlink:href="#DejaVuSans-65" transform="translate(1023.201172 0)"/>
      <use xlink:href="#DejaVuSans-76" transform="translate(1084.724609 0)"/>
      <use xlink:href="#DejaVuSans-65" transform="translate(1143.904297 0)"/>
      <use xlink:href="#DejaVuSans-6c" transform="translate(1205.427734 0)"/>
     </g>
    </g>
   </g>
   <g id="matplotlib.axis_2">
    <g id="ytick_1">
     <g id="line2d_13">
      <path d="M 34.516562 399.35875 
L 639.071562 399.35875 
" clip-path="url(#p49ae292778)" style="fill: none; stroke: #b0b0b0; stroke-width: 0.8; stroke-linecap: square"/>
     </g>
     <g id="line2d_14">
      <defs>
       <path id="m5f8b191db4" d="M 0 0 
L -3.5 0 
" style="stroke: #000000; stroke-width: 0.8"/>
      </defs>
      <g>
       <use xlink:href="#m5f8b191db4" x="34.516562" y="399.35875" style="stroke: #000000; stroke-width: 0.8"/>
      </g>
     </g>
     <g id="text_8">
      <!-- 0.0 -->
      <g transform="translate(17.974688 401.638281) scale(0.06 -0.06)">
       <use xlink:href="#DejaVuSans-30"/>
       <use xlink:href="#DejaVuSans-2e" transform="translate(63.623047 0)"/>
       <use xlink:href="#DejaVuSans-30" transform="translate(95.410156 0)"/>
      </g>
     </g>
    </g>
    <g id="ytick_2">
     <g id="line2d_15">
      <path d="M 34.516562 323.34275 
L 639.071562 323.34275 
" clip-path="url(#p49ae292778)" style="fill: none; stroke: #b0b0b0; stroke-width: 0.8; stroke-linecap: square"/>
     </g>
     <g id="line2d_16">
      <g>
       <use xlink:href="#m5f8b191db4" x="34.516562" y="323.34275" style="stroke: #000000; stroke-width: 0.8"/>
      </g>
     </g>
     <g id="text_9">
      <!-- 0.2 -->
      <g transform="translate(17.974688 325.622281) scale(0.06 -0.06)">
       <use xlink:href="#DejaVuSans-30"/>
       <use xlink:href="#DejaVuSans-2e" transform="translate(63.623047 0)"/>
       <use xlink:href="#DejaVuSans-32" transform="translate(95.410156 0)"/>
      </g>
     </g>
    </g>
    <g id="ytick_3">
     <g id="line2d_17">
      <path d="M 34.516562 247.32675 
L 639.071562 247.32675 
" clip-path="url(#p49ae292778)" style="fill: none; stroke: #b0b0b0; stroke-width: 0.8; stroke-linecap: square"/>
     </g>
     <g id="line2d_18">
      <g>
       <use xlink:href="#m5f8b191db4" x="34.516562" y="247.32675" style="stroke: #000000; stroke-width: 0.8"/>
      </g>
     </g>
     <g id="text_10">
      <!-- 0.4 -->
      <g transform="translate(17.974688 249.606281) scale(0.06 -0.06)">
       <use xlink:href="#DejaVuSans-30"/>
       <use xlink:href="#DejaVuSans-2e" transform="translate(63.623047 0)"/>
       <use xlink:href="#DejaVuSans-34" transform="translate(95.410156 0)"/>
      </g>
     </g>
    </g>
    <g id="ytick_4">
     <g id="line2d_19">
      <path d="M 34.516562 171.31075 
L 639.071562 171.31075 
" clip-path="url(#p49ae292778)" style="fill: none; stroke: #b0b0b0; stroke-width: 0.8; stroke-linecap: square"/>
     </g>
     <g id="line2d_20">
      <g>
       <use xlink:href="#m5f8b191db4" x="34.516562" y="171.31075" style="stroke: #000000; stroke-width: 0.8"/>
      </g>
     </g>
     <g id="text_11">
      <!-- 0.6 -->
      <g transform="translate(17.974688 173.590281) scale(0.06 -0.06)">
       <use xlink:href="#DejaVuSans-30"/>
       <use xlink:href="#DejaVuSans-2e" transform="translate(63.623047 0)"/>
       <use xlink:href="#DejaVuSans-36" transform="translate(95.410156 0)"/>
      </g>
     </g>
    </g>
    <g id="ytick_5">
     <g id="line2d_21">
      <path d="M 34.516562 95.29475 
L 639.071562 95.29475 
" clip-path="url(#p49ae292778)" style="fill: none; stroke: #b0b0b0; stroke-width: 0.8; stroke-linecap: square"/>
     </g>
     <g id="line2d_22">
      <g>
       <use xlink:href="#m5f8b191db4" x="34.516562" y="95.29475" style="stroke: #000000; stroke-width: 0.8"/>
      </g>
     </g>
     <g id="text_12">
      <!-- 0.8 -->
      <g transform="translate(17.974688 97.574281) scale(0.06 -0.06)">
       <use xlink:href="#DejaVuSans-30"/>
       <use xlink:href="#DejaVuSans-2e" transform="translate(63.623047 0)"/>
       <use xlink:href="#DejaVuSans-38" transform="translate(95.410156 0)"/>
      </g>
     </g>
    </g>
    <g id="ytick_6">
     <g id="line2d_23">
      <path d="M 34.516562 19.27875 
L 639.071562 19.27875 
" clip-path="url(#p49ae292778)" style="fill: none; stroke: #b0b0b0; stroke-width: 0.8; stroke-linecap: square"/>
     </g>
     <g id="line2d_24">
      <g>
       <use xlink:href="#m5f8b191db4" x="34.516562" y="19.27875" style="stroke: #000000; stroke-width: 0.8"/>
      </g>
     </g>
     <g id="text_13">
      <!-- 1.0 -->
      <g transform="translate(17.974688 21.558281) scale(0.06 -0.06)">
       <use xlink:href="#DejaVuSans-31"/>
       <use xlink:href="#DejaVuSans-2e" transform="translate(63.623047 0)"/>
       <use xlink:href="#DejaVuSans-30" transform="translate(95.410156 0)"/>
      </g>
     </g>
    </g>
    <g id="text_14">
     <!-- Mean Accuracy -->
     <g transform="translate(12.518906 235.947187) rotate(-90) scale(0.07 -0.07)">
      <defs>
       <path id="DejaVuSans-4d" d="M 628 4666 
L 1569 4666 
L 2759 1491 
L 3956 4666 
L 4897 4666 
L 4897 0 
L 4281 0 
L 4281 4097 
L 3078 897 
L 2444 897 
L 1241 4097 
L 1241 0 
L 628 0 
L 628 4666 
z
" transform="scale(0.015625)"/>
       <path id="DejaVuSans-41" d="M 2188 4044 
L 1331 1722 
L 3047 1722 
L 2188 4044 
z
M 1831 4666 
L 2547 4666 
L 4325 0 
L 3669 0 
L 3244 1197 
L 1141 1197 
L 716 0 
L 50 0 
L 1831 4666 
z
" transform="scale(0.015625)"/>
       <path id="DejaVuSans-63" d="M 3122 3366 
L 3122 2828 
Q 2878 2963 2633 3030 
Q 2388 3097 2138 3097 
Q 1578 3097 1268 2742 
Q 959 2388 959 1747 
Q 959 1106 1268 751 
Q 1578 397 2138 397 
Q 2388 397 2633 464 
Q 2878 531 3122 666 
L 3122 134 
Q 2881 22 2623 -34 
Q 2366 -91 2075 -91 
Q 1284 -91 818 406 
Q 353 903 353 1747 
Q 353 2603 823 3093 
Q 1294 3584 2113 3584 
Q 2378 3584 2631 3529 
Q 2884 3475 3122 3366 
z
" transform="scale(0.015625)"/>
       <path id="DejaVuSans-75" d="M 544 1381 
L 544 3500 
L 1119 3500 
L 1119 1403 
Q 1119 906 1312 657 
Q 1506 409 1894 409 
Q 2359 409 2629 706 
Q 2900 1003 2900 1516 
L 2900 3500 
L 3475 3500 
L 3475 0 
L 2900 0 
L 2900 538 
Q 2691 219 2414 64 
Q 2138 -91 1772 -91 
Q 1169 -91 856 284 
Q 544 659 544 1381 
z
M 1991 3584 
L 1991 3584 
z
" transform="scale(0.015625)"/>
       <path id="DejaVuSans-79" d="M 2059 -325 
Q 1816 -950 1584 -1140 
Q 1353 -1331 966 -1331 
L 506 -1331 
L 506 -850 
L 844 -850 
Q 1081 -850 1212 -737 
Q 1344 -625 1503 -206 
L 1606 56 
L 191 3500 
L 800 3500 
L 1894 763 
L 2988 3500 
L 3597 3500 
L 2059 -325 
z
" transform="scale(0.015625)"/>
      </defs>
      <use xlink:href="#DejaVuSans-4d"/>
      <use xlink:href="#DejaVuSans-65" transform="translate(86.279297 0)"/>
      <use xlink:href="#DejaVuSans-61" transform="translate(147.802734 0)"/>
      <use xlink:href="#DejaVuSans-6e" transform="translate(209.082031 0)"/>
      <use xlink:href="#DejaVuSans-20" transform="translate(272.460938 0)"/>
      <use xlink:href="#DejaVuSans-41" transform="translate(304.248047 0)"/>
      <use xlink:href="#DejaVuSans-63" transform="translate(370.90625 0)"/>
      <use xlink:href="#DejaVuSans-63" transform="translate(425.886719 0)"/>
      <use xlink:href="#DejaVuSans-75" transform="translate(480.867188 0)"/>
      <use xlink:href="#DejaVuSans-72" transform="translate(544.246094 0)"/>
      <use xlink:href="#DejaVuSans-61" transform="translate(585.359375 0)"/>
      <use xlink:href="#DejaVuSans-63" transform="translate(646.638672 0)"/>
      <use xlink:href="#DejaVuSans-79" transform="translate(701.619141 0)"/>
     </g>
    </g>
   </g>
   <g id="line2d_25">
    <path d="M 61.996335 168.31572 
L 116.955881 168.959955 
L 226.874972 169.372342 
L 336.794062 170.662714 
L 446.713153 172.241946 
L 611.59179 178.041967 
" clip-path="url(#p49ae292778)" style="fill: none; stroke-dasharray: 5.55,2.4; stroke-dashoffset: 0; stroke: #1f77b4; stroke-width: 1.5"/>
    <defs>
     <path id="m278db85a61" d="M 0 3 
C 0.795609 3 1.55874 2.683901 2.12132 2.12132 
C 2.683901 1.55874 3 0.795609 3 0 
C 3 -0.795609 2.683901 -1.55874 2.12132 -2.12132 
C 1.55874 -2.683901 0.795609 -3 0 -3 
C -0.795609 -3 -1.55874 -2.683901 -2.12132 -2.12132 
C -2.683901 -1.55874 -3 -0.795609 -3 0 
C -3 0.795609 -2.683901 1.55874 -2.12132 2.12132 
C -1.55874 2.683901 -0.795609 3 0 3 
z
" style="stroke: #1f77b4"/>
    </defs>
    <g clip-path="url(#p49ae292778)">
     <use xlink:href="#m278db85a61" x="61.996335" y="168.31572" style="fill: #1f77b4; stroke: #1f77b4"/>
     <use xlink:href="#m278db85a61" x="116.955881" y="168.959955" style="fill: #1f77b4; stroke: #1f77b4"/>
     <use xlink:href="#m278db85a61" x="226.874972" y="169.372342" style="fill: #1f77b4; stroke: #1f77b4"/>
     <use xlink:href="#m278db85a61" x="336.794062" y="170.662714" style="fill: #1f77b4; stroke: #1f77b4"/>
     <use xlink:href="#m278db85a61" x="446.713153" y="172.241946" style="fill: #1f77b4; stroke: #1f77b4"/>
     <use xlink:href="#m278db85a61" x="611.59179" y="178.041967" style="fill: #1f77b4; stroke: #1f77b4"/>
    </g>
   </g>
   <g id="line2d_26">
    <path d="M 61.996335 168.31572 
L 116.955881 168.387935 
L 226.874972 161.539843 
L 336.794062 163.427891 
L 446.713153 167.49348 
L 611.59179 175.180123 
" clip-path="url(#p49ae292778)" style="fill: none; stroke: #ff7f0e; stroke-width: 1.5; stroke-linecap: square"/>
    <defs>
     <path id="mf88afd2152" d="M 0 3 
C 0.795609 3 1.55874 2.683901 2.12132 2.12132 
C 2.683901 1.55874 3 0.795609 3 0 
C 3 -0.795609 2.683901 -1.55874 2.12132 -2.12132 
C 1.55874 -2.683901 0.795609 -3 0 -3 
C -0.795609 -3 -1.55874 -2.683901 -2.12132 -2.12132 
C -2.683901 -1.55874 -3 -0.795609 -3 0 
C -3 0.795609 -2.683901 1.55874 -2.12132 2.12132 
C -1.55874 2.683901 -0.795609 3 0 3 
z
" style="stroke: #ff7f0e"/>
    </defs>
    <g clip-path="url(#p49ae292778)">
     <use xlink:href="#mf88afd2152" x="61.996335" y="168.31572" style="fill: #ff7f0e; stroke: #ff7f0e"/>
     <use xlink:href="#mf88afd2152" x="116.955881" y="168.387935" style="fill: #ff7f0e; stroke: #ff7f0e"/>
     <use xlink:href="#mf88afd2152" x="226.874972" y="161.539843" style="fill: #ff7f0e; stroke: #ff7f0e"/>
     <use xlink:href="#mf88afd2152" x="336.794062" y="163.427891" style="fill: #ff7f0e; stroke: #ff7f0e"/>
     <use xlink:href="#mf88afd2152" x="446.713153" y="167.49348" style="fill: #ff7f0e; stroke: #ff7f0e"/>
     <use xlink:href="#mf88afd2152" x="611.59179" y="175.180123" style="fill: #ff7f0e; stroke: #ff7f0e"/>
    </g>
   </g>
   <g id="line2d_27">
    <path d="M 61.996335 164.862693 
L 116.955881 164.805681 
L 226.874972 165.459418 
L 336.794062 166.810603 
L 446.713153 168.12758 
L 611.59179 170.470773 
" clip-path="url(#p49ae292778)" style="fill: none; stroke-dasharray: 5.55,2.4; stroke-dashoffset: 0; stroke: #2ca02c; stroke-width: 1.5"/>
    <defs>
     <path id="m6a1848967a" d="M 0 3 
C 0.795609 3 1.55874 2.683901 2.12132 2.12132 
C 2.683901 1.55874 3 0.795609 3 0 
C 3 -0.795609 2.683901 -1.55874 2.12132 -2.12132 
C 1.55874 -2.683901 0.795609 -3 0 -3 
C -0.795609 -3 -1.55874 -2.683901 -2.12132 -2.12132 
C -2.683901 -1.55874 -3 -0.795609 -3 0 
C -3 0.795609 -2.683901 1.55874 -2.12132 2.12132 
C -1.55874 2.683901 -0.795609 3 0 3 
z
" style="stroke: #2ca02c"/>
    </defs>
    <g clip-path="url(#p49ae292778)">
     <use xlink:href="#m6a1848967a" x="61.996335" y="164.862693" style="fill: #2ca02c; stroke: #2ca02c"/>
     <use xlink:href="#m6a1848967a" x="116.955881" y="164.805681" style="fill: #2ca02c; stroke: #2ca02c"/>
     <use xlink:href="#m6a1848967a" x="226.874972" y="165.459418" style="fill: #2ca02c; stroke: #2ca02c"/>
     <use xlink:href="#m6a1848967a" x="336.794062" y="166.810603" style="fill: #2ca02c; stroke: #2ca02c"/>
     <use xlink:href="#m6a1848967a" x="446.713153" y="168.12758" style="fill: #2ca02c; stroke: #2ca02c"/>
     <use xlink:href="#m6a1848967a" x="611.59179" y="170.470773" style="fill: #2ca02c; stroke: #2ca02c"/>
    </g>
   </g>
   <g id="line2d_28">
    <path d="M 61.996335 164.862693 
L 116.955881 164.188209 
L 226.874972 163.025006 
L 336.794062 155.395533 
L 446.713153 159.32081 
L 611.59179 166.342788 
" clip-path="url(#p49ae292778)" style="fill: none; stroke: #d62728; stroke-width: 1.5; stroke-linecap: square"/>
    <defs>
     <path id="m3d48445d6d" d="M 0 3 
C 0.795609 3 1.55874 2.683901 2.12132 2.12132 
C 2.683901 1.55874 3 0.795609 3 0 
C 3 -0.795609 2.683901 -1.55874 2.12132 -2.12132 
C 1.55874 -2.683901 0.795609 -3 0 -3 
C -0.795609 -3 -1.55874 -2.683901 -2.12132 -2.12132 
C -2.683901 -1.55874 -3 -0.795609 -3 0 
C -3 0.795609 -2.683901 1.55874 -2.12132 2.12132 
C -1.55874 2.683901 -0.795609 3 0 3 
z
" style="stroke: #d62728"/>
    </defs>
    <g clip-path="url(#p49ae292778)">
     <use xlink:href="#m3d48445d6d" x="61.996335" y="164.862693" style="fill: #d62728; stroke: #d62728"/>
     <use xlink:href="#m3d48445d6d" x="116.955881" y="164.188209" style="fill: #d62728; stroke: #d62728"/>
     <use xlink:href="#m3d48445d6d" x="226.874972" y="163.025006" style="fill: #d62728; stroke: #d62728"/>
     <use xlink:href="#m3d48445d6d" x="336.794062" y="155.395533" style="fill: #d62728; stroke: #d62728"/>
     <use xlink:href="#m3d48445d6d" x="446.713153" y="159.32081" style="fill: #d62728; stroke: #d62728"/>
     <use xlink:href="#m3d48445d6d" x="611.59179" y="166.342788" style="fill: #d62728; stroke: #d62728"/>
    </g>
   </g>
   <g id="line2d_29">
    <path d="M 61.996335 161.460977 
L 116.955881 160.119294 
L 226.874972 158.064962 
L 336.794062 158.517257 
L 446.713153 160.957371 
L 611.59179 164.703059 
" clip-path="url(#p49ae292778)" style="fill: none; stroke-dasharray: 5.55,2.4; stroke-dashoffset: 0; stroke: #9467bd; stroke-width: 1.5"/>
    <defs>
     <path id="me89e40c940" d="M 0 3 
C 0.795609 3 1.55874 2.683901 2.12132 2.12132 
C 2.683901 1.55874 3 0.795609 3 0 
C 3 -0.795609 2.683901 -1.55874 2.12132 -2.12132 
C 1.55874 -2.683901 0.795609 -3 0 -3 
C -0.795609 -3 -1.55874 -2.683901 -2.12132 -2.12132 
C -2.683901 -1.55874 -3 -0.795609 -3 0 
C -3 0.795609 -2.683901 1.55874 -2.12132 2.12132 
C -1.55874 2.683901 -0.795609 3 0 3 
z
" style="stroke: #9467bd"/>
    </defs>
    <g clip-path="url(#p49ae292778)">
     <use xlink:href="#me89e40c940" x="61.996335" y="161.460977" style="fill: #9467bd; stroke: #9467bd"/>
     <use xlink:href="#me89e40c940" x="116.955881" y="160.119294" style="fill: #9467bd; stroke: #9467bd"/>
     <use xlink:href="#me89e40c940" x="226.874972" y="158.064962" style="fill: #9467bd; stroke: #9467bd"/>
     <use xlink:href="#me89e40c940" x="336.794062" y="158.517257" style="fill: #9467bd; stroke: #9467bd"/>
     <use xlink:href="#me89e40c940" x="446.713153" y="160.957371" style="fill: #9467bd; stroke: #9467bd"/>
     <use xlink:href="#me89e40c940" x="611.59179" y="164.703059" style="fill: #9467bd; stroke: #9467bd"/>
    </g>
   </g>
   <g id="line2d_30">
    <path d="M 61.996335 161.460977 
L 116.955881 160.102032 
L 226.874972 154.769827 
L 336.794062 150.78833 
L 446.713153 147.024588 
L 611.59179 157.835805 
" clip-path="url(#p49ae292778)" style="fill: none; stroke: #8c564b; stroke-width: 1.5; stroke-linecap: square"/>
    <defs>
     <path id="ma81d2df92e" d="M 0 3 
C 0.795609 3 1.55874 2.683901 2.12132 2.12132 
C 2.683901 1.55874 3 0.795609 3 0 
C 3 -0.795609 2.683901 -1.55874 2.12132 -2.12132 
C 1.55874 -2.683901 0.795609 -3 0 -3 
C -0.795609 -3 -1.55874 -2.683901 -2.12132 -2.12132 
C -2.683901 -1.55874 -3 -0.795609 -3 0 
C -3 0.795609 -2.683901 1.55874 -2.12132 2.12132 
C -1.55874 2.683901 -0.795609 3 0 3 
z
" style="stroke: #8c564b"/>
    </defs>
    <g clip-path="url(#p49ae292778)">
     <use xlink:href="#ma81d2df92e" x="61.996335" y="161.460977" style="fill: #8c564b; stroke: #8c564b"/>
     <use xlink:href="#ma81d2df92e" x="116.955881" y="160.102032" style="fill: #8c564b; stroke: #8c564b"/>
     <use xlink:href="#ma81d2df92e" x="226.874972" y="154.769827" style="fill: #8c564b; stroke: #8c564b"/>
     <use xlink:href="#ma81d2df92e" x="336.794062" y="150.78833" style="fill: #8c564b; stroke: #8c564b"/>
     <use xlink:href="#ma81d2df92e" x="446.713153" y="147.024588" style="fill: #8c564b; stroke: #8c564b"/>
     <use xlink:href="#ma81d2df92e" x="611.59179" y="157.835805" style="fill: #8c564b; stroke: #8c564b"/>
    </g>
   </g>
   <g id="patch_3">
    <path d="M 34.516562 399.35875 
L 34.516562 19.27875 
" style="fill: none; stroke: #000000; stroke-width: 0.8; stroke-linejoin: miter; stroke-linecap: square"/>
   </g>
   <g id="patch_4">
    <path d="M 639.071562 399.35875 
L 639.071562 19.27875 
" style="fill: none; stroke: #000000; stroke-width: 0.8; stroke-linejoin: miter; stroke-linecap: square"/>
   </g>
   <g id="patch_5">
    <path d="M 34.516562 399.35875 
L 639.071562 399.35875 
" style="fill: none; stroke: #000000; stroke-width: 0.8; stroke-linejoin: miter; stroke-linecap: square"/>
   </g>
   <g id="patch_6">
    <path d="M 34.516562 19.27875 
L 639.071562 19.27875 
" style="fill: none; stroke: #000000; stroke-width: 0.8; stroke-linejoin: miter; stroke-linecap: square"/>
   </g>
   <g id="text_15">
    <!-- Raw vs ZNE Mean Accuracy Across Noise Levels -->
    <g transform="translate(240.835938 13.27875) scale(0.08 -0.08)">
     <defs>
      <path id="DejaVuSans-52" d="M 2841 2188 
Q 3044 2119 3236 1894 
Q 3428 1669 3622 1275 
L 4263 0 
L 3584 0 
L 2988 1197 
Q 2756 1666 2539 1819 
Q 2322 1972 1947 1972 
L 1259 1972 
L 1259 0 
L 628 0 
L 628 4666 
L 2053 4666 
Q 2853 4666 3247 4331 
Q 3641 3997 3641 3322 
Q 3641 2881 3436 2590 
Q 3231 2300 2841 2188 
z
M 1259 4147 
L 1259 2491 
L 2053 2491 
Q 2509 2491 2742 2702 
Q 2975 2913 2975 3322 
Q 2975 3731 2742 3939 
Q 2509 4147 2053 4147 
L 1259 4147 
z
" transform="scale(0.015625)"/>
      <path id="DejaVuSans-77" d="M 269 3500 
L 844 3500 
L 1563 769 
L 2278 3500 
L 2956 3500 
L 3675 769 
L 4391 3500 
L 4966 3500 
L 4050 0 
L 3372 0 
L 2619 2869 
L 1863 0 
L 1184 0 
L 269 3500 
z
" transform="scale(0.015625)"/>
      <path id="DejaVuSans-5a" d="M 359 4666 
L 4025 4666 
L 4025 4184 
L 1075 531 
L 4097 531 
L 4097 0 
L 288 0 
L 288 481 
L 3238 4134 
L 359 4134 
L 359 4666 
z
" transform="scale(0.015625)"/>
      <path id="DejaVuSans-45" d="M 628 4666 
L 3578 4666 
L 3578 4134 
L 1259 4134 
L 1259 2753 
L 3481 2753 
L 3481 2222 
L 1259 2222 
L 1259 531 
L 3634 531 
L 3634 0 
L 628 0 
L 628 4666 
z
" transform="scale(0.015625)"/>
     </defs>
     <use xlink:href="#DejaVuSans-52"/>
     <use xlink:href="#DejaVuSans-61" transform="translate(67.232422 0)"/>
     <use xlink:href="#DejaVuSans-77" transform="translate(128.511719 0)"/>
     <use xlink:href="#DejaVuSans-20" transform="translate(210.298828 0)"/>
     <use xlink:href="#DejaVuSans-76" transform="translate(242.085938 0)"/>
     <use xlink:href="#DejaVuSans-73" transform="translate(301.265625 0)"/>
     <use xlink:href="#DejaVuSans-20" transform="translate(353.365234 0)"/>
     <use xlink:href="#DejaVuSans-5a" transform="translate(385.152344 0)"/>
     <use xlink:href="#DejaVuSans-4e" transform="translate(453.658203 0)"/>
     <use xlink:href="#DejaVuSans-45" transform="translate(528.462891 0)"/>
     <use xlink:href="#DejaVuSans-20" transform="translate(591.646484 0)"/>
     <use xlink:href="#DejaVuSans-4d" transform="translate(623.433594 0)"/>
     <use xlink:href="#DejaVuSans-65" transform="translate(709.712891 0)"/>
     <use xlink:href="#DejaVuSans-61" transform="translate(771.236328 0)"/>
     <use xlink:href="#DejaVuSans-6e" transform="translate(832.515625 0)"/>
     <use xlink:href="#DejaVuSans-20" transform="translate(895.894531 0)"/>
     <use xlink:href="#DejaVuSans-41" transform="translate(927.681641 0)"/>
     <use xlink:href="#DejaVuSans-63" transform="translate(994.339844 0)"/>
     <use xlink:href="#DejaVuSans-63" transform="translate(1049.320312 0)"/>
     <use xlink:href="#DejaVuSans-75" transform="translate(1104.300781 0)"/>
     <use xlink:href="#DejaVuSans-72" transform="translate(1167.679688 0)"/>
     <use xlink:href="#DejaVuSans-61" transform="translate(1208.792969 0)"/>
     <use xlink:href="#DejaVuSans-63" transform="translate(1270.072266 0)"/>
     <use xlink:href="#DejaVuSans-79" transform="translate(1325.052734 0)"/>
     <use xlink:href="#DejaVuSans-20" transform="translate(1384.232422 0)"/>
     <use xlink:href="#DejaVuSans-41" transform="translate(1416.019531 0)"/>
     <use xlink:href="#DejaVuSans-63" transform="translate(1482.677734 0)"/>
     <use xlink:href="#DejaVuSans-72" transform="translate(1537.658203 0)"/>
     <use xlink:href="#DejaVuSans-6f" transform="translate(1576.521484 0)"/>
     <use xlink:href="#DejaVuSans-73" transform="translate(1637.703125 0)"/>
     <use xlink:href="#DejaVuSans-73" transform="translate(1689.802734 0)"/>
     <use xlink:href="#DejaVuSans-20" transform="translate(1741.902344 0)"/>
     <use xlink:href="#DejaVuSans-4e" transform="translate(1773.689453 0)"/>
     <use xlink:href="#DejaVuSans-6f" transform="translate(1848.494141 0)"/>
     <use xlink:href="#DejaVuSans-69" transform="translate(1909.675781 0)"/>
     <use xlink:href="#DejaVuSans-73" transform="translate(1937.458984 0)"/>
     <use xlink:href="#DejaVuSans-65" transform="translate(1989.558594 0)"/>
     <use xlink:href="#DejaVuSans-20" transform="translate(2051.082031 0)"/>
     <use xlink:href="#DejaVuSans-4c" transform="translate(2082.869141 0)"/>
     <use xlink:href="#DejaVuSans-65" transform="translate(2136.832031 0)"/>
     <use xlink:href="#DejaVuSans-76" transform="translate(2198.355469 0)"/>
     <use xlink:href="#DejaVuSans-65" transform="translate(2257.535156 0)"/>
     <use xlink:href="#DejaVuSans-6c" transform="translate(2319.058594 0)"/>
     <use xlink:href="#DejaVuSans-73" transform="translate(2346.841797 0)"/>
    </g>
   </g>
   <g id="legend_1">
    <g id="patch_7">
     <path d="M 536.51375 72.116563 
L 635.221563 72.116563 
Q 636.321563 72.116563 636.321563 71.016563 
L 636.321563 23.12875 
Q 636.321563 22.02875 635.221563 22.02875 
L 536.51375 22.02875 
Q 535.41375 22.02875 535.41375 23.12875 
L 535.41375 71.016563 
Q 535.41375 72.116563 536.51375 72.116563 
z
" style="fill: #ffffff; opacity: 0.8; stroke: #cccccc; stroke-linejoin: miter"/>
    </g>
    <g id="line2d_31">
     <path d="M 537.61375 26.482891 
L 543.11375 26.482891 
L 548.61375 26.482891 
" style="fill: none; stroke-dasharray: 5.55,2.4; stroke-dashoffset: 0; stroke: #1f77b4; stroke-width: 1.5"/>
     <g>
      <use xlink:href="#m278db85a61" x="543.11375" y="26.482891" style="fill: #1f77b4; stroke: #1f77b4"/>
     </g>
    </g>
    <g id="text_16">
     <!-- Raw accuracy — 100 shots -->
     <g transform="translate(553.01375 28.407891) scale(0.055 -0.055)">
      <defs>
       <path id="DejaVuSans-2014" d="M 313 1978 
L 6088 1978 
L 6088 1528 
L 313 1528 
L 313 1978 
z
" transform="scale(0.015625)"/>
       <path id="DejaVuSans-68" d="M 3513 2113 
L 3513 0 
L 2938 0 
L 2938 2094 
Q 2938 2591 2744 2837 
Q 2550 3084 2163 3084 
Q 1697 3084 1428 2787 
Q 1159 2491 1159 1978 
L 1159 0 
L 581 0 
L 581 4863 
L 1159 4863 
L 1159 2956 
Q 1366 3272 1645 3428 
Q 1925 3584 2291 3584 
Q 2894 3584 3203 3211 
Q 3513 2838 3513 2113 
z
" transform="scale(0.015625)"/>
       <path id="DejaVuSans-74" d="M 1172 4494 
L 1172 3500 
L 2356 3500 
L 2356 3053 
L 1172 3053 
L 1172 1153 
Q 1172 725 1289 603 
Q 1406 481 1766 481 
L 2356 481 
L 2356 0 
L 1766 0 
Q 1100 0 847 248 
Q 594 497 594 1153 
L 594 3053 
L 172 3053 
L 172 3500 
L 594 3500 
L 594 4494 
L 1172 4494 
z
" transform="scale(0.015625)"/>
      </defs>
      <use xlink:href="#DejaVuSans-52"/>
      <use xlink:href="#DejaVuSans-61" transform="translate(67.232422 0)"/>
      <use xlink:href="#DejaVuSans-77" transform="translate(128.511719 0)"/>
      <use xlink:href="#DejaVuSans-20" transform="translate(210.298828 0)"/>
      <use xlink:href="#DejaVuSans-61" transform="translate(242.085938 0)"/>
      <use xlink:href="#DejaVuSans-63" transform="translate(303.365234 0)"/>
      <use xlink:href="#DejaVuSans-63" transform="translate(358.345703 0)"/>
      <use xlink:href="#DejaVuSans-75" transform="translate(413.326172 0)"/>
      <use xlink:href="#DejaVuSans-72" transform="translate(476.705078 0)"/>
      <use xlink:href="#DejaVuSans-61" transform="translate(517.818359 0)"/>
      <use xlink:href="#DejaVuSans-63" transform="translate(579.097656 0)"/>
      <use xlink:href="#DejaVuSans-79" transform="translate(634.078125 0)"/>
      <use xlink:href="#DejaVuSans-20" transform="translate(693.257812 0)"/>
      <use xlink:href="#DejaVuSans-2014" transform="translate(725.044922 0)"/>
      <use xlink:href="#DejaVuSans-20" transform="translate(825.044922 0)"/>
      <use xlink:href="#DejaVuSans-31" transform="translate(856.832031 0)"/>
      <use xlink:href="#DejaVuSans-30" transform="translate(920.455078 0)"/>
      <use xlink:href="#DejaVuSans-30" transform="translate(984.078125 0)"/>
      <use xlink:href="#DejaVuSans-20" transform="translate(1047.701172 0)"/>
      <use xlink:href="#DejaVuSans-73" transform="translate(1079.488281 0)"/>
      <use xlink:href="#DejaVuSans-68" transform="translate(1131.587891 0)"/>
      <use xlink:href="#DejaVuSans-6f" transform="translate(1194.966797 0)"/>
      <use xlink:href="#DejaVuSans-74" transform="translate(1256.148438 0)"/>
      <use xlink:href="#DejaVuSans-73" transform="translate(1295.357422 0)"/>
     </g>
    </g>
    <g id="line2d_32">
     <path d="M 537.61375 34.555859 
L 543.11375 34.555859 
L 548.61375 34.555859 
" style="fill: none; stroke: #ff7f0e; stroke-width: 1.5; stroke-linecap: square"/>
     <g>
      <use xlink:href="#mf88afd2152" x="543.11375" y="34.555859" style="fill: #ff7f0e; stroke: #ff7f0e"/>
     </g>
    </g>
    <g id="text_17">
     <!-- ZNE accuracy — 100 shots -->
     <g transform="translate(553.01375 36.480859) scale(0.055 -0.055)">
      <use xlink:href="#DejaVuSans-5a"/>
      <use xlink:href="#DejaVuSans-4e" transform="translate(68.505859 0)"/>
      <use xlink:href="#DejaVuSans-45" transform="translate(143.310547 0)"/>
      <use xlink:href="#DejaVuSans-20" transform="translate(206.494141 0)"/>
      <use xlink:href="#DejaVuSans-61" transform="translate(238.28125 0)"/>
      <use xlink:href="#DejaVuSans-63" transform="translate(299.560547 0)"/>
      <use xlink:href="#DejaVuSans-63" transform="translate(354.541016 0)"/>
      <use xlink:href="#DejaVuSans-75" transform="translate(409.521484 0)"/>
      <use xlink:href="#DejaVuSans-72" transform="translate(472.900391 0)"/>
      <use xlink:href="#DejaVuSans-61" transform="translate(514.013672 0)"/>
      <use xlink:href="#DejaVuSans-63" transform="translate(575.292969 0)"/>
      <use xlink:href="#DejaVuSans-79" transform="translate(630.273438 0)"/>
      <use xlink:href="#DejaVuSans-20" transform="translate(689.453125 0)"/>
      <use xlink:href="#DejaVuSans-2014" transform="translate(721.240234 0)"/>
      <use xlink:href="#DejaVuSans-20" transform="translate(821.240234 0)"/>
      <use xlink:href="#DejaVuSans-31" transform="translate(853.027344 0)"/>
      <use xlink:href="#DejaVuSans-30" transform="translate(916.650391 0)"/>
      <use xlink:href="#DejaVuSans-30" transform="translate(980.273438 0)"/>
      <use xlink:href="#DejaVuSans-20" transform="translate(1043.896484 0)"/>
      <use xlink:href="#DejaVuSans-73" transform="translate(1075.683594 0)"/>
      <use xlink:href="#DejaVuSans-68" transform="translate(1127.783203 0)"/>
      <use xlink:href="#DejaVuSans-6f" transform="translate(1191.162109 0)"/>
      <use xlink:href="#DejaVuSans-74" transform="translate(1252.34375 0)"/>
      <use xlink:href="#DejaVuSans-73" transform="translate(1291.552734 0)"/>
     </g>
    </g>
    <g id="line2d_33">
     <path d="M 537.61375 42.628828 
L 543.11375 42.628828 
L 548.61375 42.628828 
" style="fill: none; stroke-dasharray: 5.55,2.4; stroke-dashoffset: 0; stroke: #2ca02c; stroke-width: 1.5"/>
     <g>
      <use xlink:href="#m6a1848967a" x="543.11375" y="42.628828" style="fill: #2ca02c; stroke: #2ca02c"/>
     </g>
    </g>
    <g id="text_18">
     <!-- Raw accuracy — 1000 shots -->
     <g transform="translate(553.01375 44.553828) scale(0.055 -0.055)">
      <use xlink:href="#DejaVuSans-52"/>
      <use xlink:href="#DejaVuSans-61" transform="translate(67.232422 0)"/>
      <use xlink:href="#DejaVuSans-77" transform="translate(128.511719 0)"/>
      <use xlink:href="#DejaVuSans-20" transform="translate(210.298828 0)"/>
      <use xlink:href="#DejaVuSans-61" transform="translate(242.085938 0)"/>
      <use xlink:href="#DejaVuSans-63" transform="translate(303.365234 0)"/>
      <use xlink:href="#DejaVuSans-63" transform="translate(358.345703 0)"/>
      <use xlink:href="#DejaVuSans-75" transform="translate(413.326172 0)"/>
      <use xlink:href="#DejaVuSans-72" transform="translate(476.705078 0)"/>
      <use xlink:href="#DejaVuSans-61" transform="translate(517.818359 0)"/>
      <use xlink:href="#DejaVuSans-63" transform="translate(579.097656 0)"/>
      <use xlink:href="#DejaVuSans-79" transform="translate(634.078125 0)"/>
      <use xlink:href="#DejaVuSans-20" transform="translate(693.257812 0)"/>
      <use xlink:href="#DejaVuSans-2014" transform="translate(725.044922 0)"/>
      <use xlink:href="#DejaVuSans-20" transform="translate(825.044922 0)"/>
      <use xlink:href="#DejaVuSans-31" transform="translate(856.832031 0)"/>
      <use xlink:href="#DejaVuSans-30" transform="translate(920.455078 0)"/>
      <use xlink:href="#DejaVuSans-30" transform="translate(984.078125 0)"/>
      <use xlink:href="#DejaVuSans-30" transform="translate(1047.701172 0)"/>
      <use xlink:href="#DejaVuSans-20" transform="translate(1111.324219 0)"/>
      <use xlink:href="#DejaVuSans-73" transform="translate(1143.111328 0)"/>
      <use xlink:href="#DejaVuSans-68" transform="translate(1195.210938 0)"/>
      <use xlink:href="#DejaVuSans-6f" transform="translate(1258.589844 0)"/>
      <use xlink:href="#DejaVuSans-74" transform="translate(1319.771484 0)"/>
      <use xlink:href="#DejaVuSans-73" transform="translate(1358.980469 0)"/>
     </g>
    </g>
    <g id="line2d_34">
     <path d="M 537.61375 50.701797 
L 543.11375 50.701797 
L 548.61375 50.701797 
" style="fill: none; stroke: #d62728; stroke-width: 1.5; stroke-linecap: square"/>
     <g>
      <use xlink:href="#m3d48445d6d" x="543.11375" y="50.701797" style="fill: #d62728; stroke: #d62728"/>
     </g>
    </g>
    <g id="text_19">
     <!-- ZNE accuracy — 1000 shots -->
     <g transform="translate(553.01375 52.626797) scale(0.055 -0.055)">
      <use xlink:href="#DejaVuSans-5a"/>
      <use xlink:href="#DejaVuSans-4e" transform="translate(68.505859 0)"/>
      <use xlink:href="#DejaVuSans-45" transform="translate(143.310547 0)"/>
      <use xlink:href="#DejaVuSans-20" transform="translate(206.494141 0)"/>
      <use xlink:href="#DejaVuSans-61" transform="translate(238.28125 0)"/>
      <use xlink:href="#DejaVuSans-63" transform="translate(299.560547 0)"/>
      <use xlink:href="#DejaVuSans-63" transform="translate(354.541016 0)"/>
      <use xlink:href="#DejaVuSans-75" transform="translate(409.521484 0)"/>
      <use xlink:href="#DejaVuSans-72" transform="translate(472.900391 0)"/>
      <use xlink:href="#DejaVuSans-61" transform="translate(514.013672 0)"/>
      <use xlink:href="#DejaVuSans-63" transform="translate(575.292969 0)"/>
      <use xlink:href="#DejaVuSans-79" transform="translate(630.273438 0)"/>
      <use xlink:href="#DejaVuSans-20" transform="translate(689.453125 0)"/>
      <use xlink:href="#DejaVuSans-2014" transform="translate(721.240234 0)"/>
      <use xlink:href="#DejaVuSans-20" transform="translate(821.240234 0)"/>
      <use xlink:href="#DejaVuSans-31" transform="translate(853.027344 0)"/>
      <use xlink:href="#DejaVuSans-30" transform="translate(916.650391 0)"/>
      <use xlink:href="#DejaVuSans-30" transform="translate(980.273438 0)"/>
      <use xlink:href="#DejaVuSans-30" transform="translate(1043.896484 0)"/>
      <use xlink:href="#DejaVuSans-20" transform="translate(1107.519531 0)"/>
      <use xlink:href="#DejaVuSans-73" transform="translate(1139.306641 0)"/>
      <use xlink:href="#DejaVuSans-68" transform="translate(1191.40625 0)"/>
      <use xlink:href="#DejaVuSans-6f" transform="translate(1254.785156 0)"/>
      <use xlink:href="#DejaVuSans-74" transform="translate(1315.966797 0)"/>
      <use xlink:href="#DejaVuSans-73" transform="translate(1355.175781 0)"/>
     </g>
    </g>
    <g id="line2d_35">
     <path d="M 537.61375 58.774766 
L 543.11375 58.774766 
L 548.61375 58.774766 
" style="fill: none; stroke-dasharray: 5.55,2.4; stroke-dashoffset: 0; stroke: #9467bd; stroke-width: 1.5"/>
     <g>
      <use xlink:href="#me89e40c940" x="543.11375" y="58.774766" style="fill: #9467bd; stroke: #9467bd"/>
     </g>
    </g>
    <g id="text_20">
     <!-- Raw accuracy — 10000 shots -->
     <g transform="translate(553.01375 60.699766) scale(0.055 -0.055)">
      <use xlink:href="#DejaVuSans-52"/>
      <use xlink:href="#DejaVuSans-61" transform="translate(67.232422 0)"/>
      <use xlink:href="#DejaVuSans-77" transform="translate(128.511719 0)"/>
      <use xlink:href="#DejaVuSans-20" transform="translate(210.298828 0)"/>
      <use xlink:href="#DejaVuSans-61" transform="translate(242.085938 0)"/>
      <use xlink:href="#DejaVuSans-63" transform="translate(303.365234 0)"/>
      <use xlink:href="#DejaVuSans-63" transform="translate(358.345703 0)"/>
      <use xlink:href="#DejaVuSans-75" transform="translate(413.326172 0)"/>
      <use xlink:href="#DejaVuSans-72" transform="translate(476.705078 0)"/>
      <use xlink:href="#DejaVuSans-61" transform="translate(517.818359 0)"/>
      <use xlink:href="#DejaVuSans-63" transform="translate(579.097656 0)"/>
      <use xlink:href="#DejaVuSans-79" transform="translate(634.078125 0)"/>
      <use xlink:href="#DejaVuSans-20" transform="translate(693.257812 0)"/>
      <use xlink:href="#DejaVuSans-2014" transform="translate(725.044922 0)"/>
      <use xlink:href="#DejaVuSans-20" transform="translate(825.044922 0)"/>
      <use xlink:href="#DejaVuSans-31" transform="translate(856.832031 0)"/>
      <use xlink:href="#DejaVuSans-30" transform="translate(920.455078 0)"/>
      <use xlink:href="#DejaVuSans-30" transform="translate(984.078125 0)"/>
      <use xlink:href="#DejaVuSans-30" transform="translate(1047.701172 0)"/>
      <use xlink:href="#DejaVuSans-30" transform="translate(1111.324219 0)"/>
      <use xlink:href="#DejaVuSans-20" transform="translate(1174.947266 0)"/>
      <use xlink:href="#DejaVuSans-73" transform="translate(1206.734375 0)"/>
      <use xlink:href="#DejaVuSans-68" transform="translate(1258.833984 0)"/>
      <use xlink:href="#DejaVuSans-6f" transform="translate(1322.212891 0)"/>
      <use xlink:href="#DejaVuSans-74" transform="translate(1383.394531 0)"/>
      <use xlink:href="#DejaVuSans-73" transform="translate(1422.603516 0)"/>
     </g>
    </g>
    <g id="line2d_36">
     <path d="M 537.61375 66.847734 
L 543.11375 66.847734 
L 548.61375 66.847734 
" style="fill: none; stroke: #8c564b; stroke-width: 1.5; stroke-linecap: square"/>
     <g>
      <use xlink:href="#ma81d2df92e" x="543.11375" y="66.847734" style="fill: #8c564b; stroke: #8c564b"/>
     </g>
    </g>
    <g id="text_21">
     <!-- ZNE accuracy — 10000 shots -->
     <g transform="translate(553.01375 68.772734) scale(0.055 -0.055)">
      <use xlink:href="#DejaVuSans-5a"/>
      <use xlink:href="#DejaVuSans-4e" transform="translate(68.505859 0)"/>
      <use xlink:href="#DejaVuSans-45" transform="translate(143.310547 0)"/>
      <use xlink:href="#DejaVuSans-20" transform="translate(206.494141 0)"/>
      <use xlink:href="#DejaVuSans-61" transform="translate(238.28125 0)"/>
      <use xlink:href="#DejaVuSans-63" transform="translate(299.560547 0)"/>
      <use xlink:href="#DejaVuSans-63" transform="translate(354.541016 0)"/>
      <use xlink:href="#DejaVuSans-75" transform="translate(409.521484 0)"/>
      <use xlink:href="#DejaVuSans-72" transform="translate(472.900391 0)"/>
      <use xlink:href="#DejaVuSans-61" transform="translate(514.013672 0)"/>
      <use xlink:href="#DejaVuSans-63" transform="translate(575.292969 0)"/>
      <use xlink:href="#DejaVuSans-79" transform="translate(630.273438 0)"/>
      <use xlink:href="#DejaVuSans-20" transform="translate(689.453125 0)"/>
      <use xlink:href="#DejaVuSans-2014" transform="translate(721.240234 0)"/>
      <use xlink:href="#DejaVuSans-20" transform="translate(821.240234 0)"/>
      <use xlink:href="#DejaVuSans-31" transform="translate(853.027344 0)"/>
      <use xlink:href="#DejaVuSans-30" transform="translate(916.650391 0)"/>
      <use xlink:href="#DejaVuSans-30" transform="translate(980.273438 0)"/>
      <use xlink:href="#DejaVuSans-30" transform="translate(1043.896484 0)"/>
      <use xlink:href="#DejaVuSans-30" transform="translate(1107.519531 0)"/>
      <use xlink:href="#DejaVuSans-20" transform="translate(1171.142578 0)"/>
      <use xlink:href="#DejaVuSans-73" transform="translate(1202.929688 0)"/>
      <use xlink:href="#DejaVuSans-68" transform="translate(1255.029297 0)"/>
      <use xlink:href="#DejaVuSans-6f" transform="translate(1318.408203 0)"/>
      <use xlink:href="#DejaVuSans-74" transform="translate(1379.589844 0)"/>
      <use xlink:href="#DejaVuSans-73" transform="translate(1418.798828 0)"/>
     </g>
    </g>
   </g>
  </g>
 </g>
 <defs>
  <clipPath id="p49ae292778">
   <rect x="34.516562" y="19.27875" width="604.555" height="380.08"/>
  </clipPath>
 </defs>
</svg>
